<mxfile host="65bd71144e">
    <diagram name="Data Architecture" id="qsl-yLtg4liw6EHXuBID">
        <mxGraphModel dx="1703" dy="2597" grid="1" gridSize="10" guides="1" tooltips="1" connect="1" arrows="1" fold="1" page="1" pageScale="1" pageWidth="1920" pageHeight="1200" math="0" shadow="0">
            <root>
                <mxCell id="PmAsDYt7ePFWswJWPdAt-0"/>
                <mxCell id="PmAsDYt7ePFWswJWPdAt-1" parent="PmAsDYt7ePFWswJWPdAt-0"/>
                <mxCell id="htLx2qYJ6O2MrZUwvxSp-0" value="&lt;font style=&quot;font-size: 38px;&quot;&gt;&lt;b style=&quot;font-size: 38px;&quot;&gt;High Level Architecture&lt;br style=&quot;font-size: 38px;&quot;&gt;&lt;/b&gt;&lt;/font&gt;" style="text;html=1;strokeColor=none;fillColor=none;align=left;verticalAlign=middle;whiteSpace=wrap;rounded=0;fontSize=38;fontFamily=Helvetica;" parent="PmAsDYt7ePFWswJWPdAt-1" vertex="1">
                    <mxGeometry x="50" y="-1140" width="480" height="54" as="geometry"/>
                </mxCell>
                <mxCell id="9O1I6l7ymoWSYBFQMa-3-24" value="" style="rounded=0;whiteSpace=wrap;html=1;hachureGap=4;fontFamily=Helvetica;fontSize=20;fillStyle=cross-hatch;strokeColor=#636363;fillColor=none;dashed=1;" parent="PmAsDYt7ePFWswJWPdAt-1" vertex="1">
                    <mxGeometry x="1540" y="-973" width="212" height="743" as="geometry"/>
                </mxCell>
                <mxCell id="9O1I6l7ymoWSYBFQMa-3-25" value="" style="rounded=0;whiteSpace=wrap;html=1;hachureGap=4;fontFamily=Helvetica;fontSize=20;fillStyle=cross-hatch;strokeColor=#636363;fillColor=none;dashed=1;" parent="PmAsDYt7ePFWswJWPdAt-1" vertex="1">
                    <mxGeometry x="210" y="-973" width="230" height="743" as="geometry"/>
                </mxCell>
                <mxCell id="9O1I6l7ymoWSYBFQMa-3-26" value="" style="rounded=0;whiteSpace=wrap;html=1;hachureGap=4;fontFamily=Helvetica;fontSize=20;fillStyle=cross-hatch;strokeColor=#636363;fillColor=none;dashed=1;" parent="PmAsDYt7ePFWswJWPdAt-1" vertex="1">
                    <mxGeometry x="487.62" y="-973" width="990" height="743" as="geometry"/>
                </mxCell>
                <mxCell id="9O1I6l7ymoWSYBFQMa-3-27" value="" style="rounded=0;whiteSpace=wrap;html=1;hachureGap=4;fontFamily=Helvetica;fontSize=20;fillStyle=cross-hatch;strokeColor=#DBDB1C;fillColor=none;" parent="PmAsDYt7ePFWswJWPdAt-1" vertex="1">
                    <mxGeometry x="1187.48" y="-881" width="251" height="631" as="geometry"/>
                </mxCell>
                <mxCell id="9O1I6l7ymoWSYBFQMa-3-28" value="" style="rounded=0;whiteSpace=wrap;html=1;hachureGap=4;fontFamily=Helvetica;fontSize=20;fillStyle=cross-hatch;strokeColor=#636363;fillColor=none;" parent="PmAsDYt7ePFWswJWPdAt-1" vertex="1">
                    <mxGeometry x="854.8" y="-883" width="251" height="633" as="geometry"/>
                </mxCell>
                <mxCell id="9O1I6l7ymoWSYBFQMa-3-29" value="" style="rounded=0;whiteSpace=wrap;html=1;hachureGap=4;fontFamily=Helvetica;fontSize=20;fillStyle=cross-hatch;strokeColor=#CC6600;fillColor=none;" parent="PmAsDYt7ePFWswJWPdAt-1" vertex="1">
                    <mxGeometry x="530.35" y="-883" width="251" height="633" as="geometry"/>
                </mxCell>
                <mxCell id="9O1I6l7ymoWSYBFQMa-3-45" value="&lt;b style=&quot;background-color: initial; font-size: 17px;&quot;&gt;Object Type:&lt;/b&gt;&lt;span style=&quot;background-color: initial; font-size: 17px;&quot;&gt; CSV Files&lt;br style=&quot;font-size: 17px;&quot;&gt;&lt;br style=&quot;font-size: 17px;&quot;&gt;&lt;/span&gt;&lt;span style=&quot;font-size: 17px;&quot;&gt;&lt;b style=&quot;font-size: 17px;&quot;&gt;Interface: &lt;/b&gt;Files in Folders&lt;/span&gt;" style="text;html=1;strokeColor=none;fillColor=none;align=left;verticalAlign=middle;whiteSpace=wrap;rounded=0;fontSize=17;" parent="PmAsDYt7ePFWswJWPdAt-1" vertex="1">
                    <mxGeometry x="216.37" y="-475" width="226.5" height="60" as="geometry"/>
                </mxCell>
                <mxCell id="9O1I6l7ymoWSYBFQMa-3-50" value="Bronze Layer" style="rounded=0;whiteSpace=wrap;html=1;hachureGap=4;fontFamily=Helvetica;fontSize=20;fillStyle=auto;strokeColor=#d79b00;fillColor=#ffe6cc;fontStyle=1;" parent="PmAsDYt7ePFWswJWPdAt-1" vertex="1">
                    <mxGeometry x="529.76" y="-934" width="250.94" height="42" as="geometry"/>
                </mxCell>
                <mxCell id="9O1I6l7ymoWSYBFQMa-3-51" value="Silver Layer" style="rounded=0;whiteSpace=wrap;html=1;hachureGap=4;fontFamily=Helvetica;fontSize=20;fillStyle=auto;strokeColor=#666666;fillColor=#f5f5f5;fontStyle=1;fontColor=#333333;" parent="PmAsDYt7ePFWswJWPdAt-1" vertex="1">
                    <mxGeometry x="852.97" y="-934" width="250.94" height="42" as="geometry"/>
                </mxCell>
                <mxCell id="9O1I6l7ymoWSYBFQMa-3-52" value="Gold Layer" style="rounded=0;whiteSpace=wrap;html=1;hachureGap=4;fontFamily=Helvetica;fontSize=20;fillStyle=auto;strokeColor=#d6b656;fillColor=#fff2cc;fontStyle=1;" parent="PmAsDYt7ePFWswJWPdAt-1" vertex="1">
                    <mxGeometry x="1187.4799999999998" y="-934" width="250.94" height="42" as="geometry"/>
                </mxCell>
                <mxCell id="9O1I6l7ymoWSYBFQMa-3-53" value="&lt;b&gt;&lt;font style=&quot;font-size: 26px;&quot;&gt;Data Warehouse&lt;/font&gt;&lt;/b&gt;" style="rounded=0;whiteSpace=wrap;html=1;fillColor=default;strokeColor=none;" parent="PmAsDYt7ePFWswJWPdAt-1" vertex="1">
                    <mxGeometry x="823.12" y="-990" width="296.19" height="30" as="geometry"/>
                </mxCell>
                <mxCell id="9O1I6l7ymoWSYBFQMa-3-57" value="&lt;b&gt;&lt;font style=&quot;font-size: 26px;&quot;&gt;Sources&lt;/font&gt;&lt;/b&gt;" style="rounded=0;whiteSpace=wrap;html=1;fillColor=default;strokeColor=none;" parent="PmAsDYt7ePFWswJWPdAt-1" vertex="1">
                    <mxGeometry x="262.96" y="-990" width="124.09" height="30" as="geometry"/>
                </mxCell>
                <mxCell id="9O1I6l7ymoWSYBFQMa-3-58" value="&lt;b&gt;&lt;font style=&quot;font-size: 26px;&quot;&gt;Consume&lt;/font&gt;&lt;/b&gt;" style="rounded=0;whiteSpace=wrap;html=1;fillColor=default;strokeColor=none;" parent="PmAsDYt7ePFWswJWPdAt-1" vertex="1">
                    <mxGeometry x="1582.7399999999998" y="-990" width="124.09" height="30" as="geometry"/>
                </mxCell>
                <mxCell id="9O1I6l7ymoWSYBFQMa-3-59" value="" style="endArrow=none;html=1;rounded=0;exitX=0;exitY=0.5;exitDx=0;exitDy=0;strokeColor=#666666;fillColor=#f5f5f5;" parent="PmAsDYt7ePFWswJWPdAt-1" edge="1">
                    <mxGeometry width="50" height="50" relative="1" as="geometry">
                        <mxPoint x="225.20999999999992" y="-509" as="sourcePoint"/>
                        <mxPoint x="418.84000000000003" y="-509" as="targetPoint"/>
                    </mxGeometry>
                </mxCell>
                <mxCell id="9O1I6l7ymoWSYBFQMa-3-71" value="" style="html=1;verticalLabelPosition=bottom;align=center;labelBackgroundColor=#ffffff;verticalAlign=top;strokeWidth=2;strokeColor=#d79b00;shadow=0;dashed=0;shape=mxgraph.ios7.icons.data;fillColor=#ffe6cc;" parent="PmAsDYt7ePFWswJWPdAt-1" vertex="1">
                    <mxGeometry x="616.03" y="-793.84" width="77.15" height="90" as="geometry"/>
                </mxCell>
                <mxCell id="9O1I6l7ymoWSYBFQMa-3-72" value="" style="html=1;verticalLabelPosition=bottom;align=center;labelBackgroundColor=#ffffff;verticalAlign=top;strokeWidth=2;strokeColor=#666666;shadow=0;dashed=0;shape=mxgraph.ios7.icons.data;fillColor=#f5f5f5;fontColor=#333333;" parent="PmAsDYt7ePFWswJWPdAt-1" vertex="1">
                    <mxGeometry x="932.63" y="-793.84" width="77.15" height="90" as="geometry"/>
                </mxCell>
                <mxCell id="9O1I6l7ymoWSYBFQMa-3-73" value="" style="html=1;verticalLabelPosition=bottom;align=center;labelBackgroundColor=#ffffff;verticalAlign=top;strokeWidth=2;strokeColor=#d6b656;shadow=0;dashed=0;shape=mxgraph.ios7.icons.data;fillColor=#fff2cc;" parent="PmAsDYt7ePFWswJWPdAt-1" vertex="1">
                    <mxGeometry x="1274.4099999999999" y="-793.84" width="77.15" height="90" as="geometry"/>
                </mxCell>
                <mxCell id="9O1I6l7ymoWSYBFQMa-3-74" value="" style="shape=singleArrow;whiteSpace=wrap;html=1;fillColor=#b1ddf0;strokeColor=#10739e;arrowWidth=0.43796185699909285;arrowSize=0.27089953548693746;" parent="PmAsDYt7ePFWswJWPdAt-1" vertex="1">
                    <mxGeometry x="420" y="-711.5" width="100" height="40.16" as="geometry"/>
                </mxCell>
                <mxCell id="9O1I6l7ymoWSYBFQMa-3-78" value="&lt;font style=&quot;font-size: 20px;&quot;&gt;Raw Data&lt;/font&gt;" style="text;html=1;strokeColor=none;fillColor=none;align=center;verticalAlign=middle;whiteSpace=wrap;rounded=0;" parent="PmAsDYt7ePFWswJWPdAt-1" vertex="1">
                    <mxGeometry x="570.23" y="-693.84" width="170" height="30" as="geometry"/>
                </mxCell>
                <mxCell id="9O1I6l7ymoWSYBFQMa-3-79" value="&lt;font style=&quot;font-size: 20px;&quot;&gt;Cleaned, Standardized Data&lt;/font&gt;" style="text;html=1;strokeColor=none;fillColor=none;align=center;verticalAlign=middle;whiteSpace=wrap;rounded=0;" parent="PmAsDYt7ePFWswJWPdAt-1" vertex="1">
                    <mxGeometry x="856.21" y="-683.84" width="230" height="30" as="geometry"/>
                </mxCell>
                <mxCell id="9O1I6l7ymoWSYBFQMa-3-82" value="&lt;font style=&quot;font-size: 20px;&quot;&gt;Business-Ready Data&lt;/font&gt;" style="text;html=1;strokeColor=none;fillColor=none;align=center;verticalAlign=middle;whiteSpace=wrap;rounded=0;" parent="PmAsDYt7ePFWswJWPdAt-1" vertex="1">
                    <mxGeometry x="1197.95" y="-693.84" width="230" height="30" as="geometry"/>
                </mxCell>
                <mxCell id="9O1I6l7ymoWSYBFQMa-3-83" value="" style="endArrow=none;html=1;rounded=0;exitX=0;exitY=0.5;exitDx=0;exitDy=0;strokeColor=#b46504;fillColor=#fad7ac;" parent="PmAsDYt7ePFWswJWPdAt-1" edge="1">
                    <mxGeometry width="50" height="50" relative="1" as="geometry">
                        <mxPoint x="558.7499999999999" y="-618.84" as="sourcePoint"/>
                        <mxPoint x="752.38" y="-618.84" as="targetPoint"/>
                    </mxGeometry>
                </mxCell>
                <mxCell id="9O1I6l7ymoWSYBFQMa-3-84" value="" style="endArrow=none;html=1;rounded=0;exitX=0;exitY=0.5;exitDx=0;exitDy=0;strokeColor=#666666;fillColor=#f5f5f5;" parent="PmAsDYt7ePFWswJWPdAt-1" edge="1">
                    <mxGeometry width="50" height="50" relative="1" as="geometry">
                        <mxPoint x="874.9599999999999" y="-618.84" as="sourcePoint"/>
                        <mxPoint x="1068.59" y="-618.84" as="targetPoint"/>
                    </mxGeometry>
                </mxCell>
                <mxCell id="9O1I6l7ymoWSYBFQMa-3-85" value="" style="endArrow=none;html=1;rounded=0;exitX=0;exitY=0.5;exitDx=0;exitDy=0;strokeColor=#d6b656;fillColor=#fff2cc;" parent="PmAsDYt7ePFWswJWPdAt-1" edge="1">
                    <mxGeometry width="50" height="50" relative="1" as="geometry">
                        <mxPoint x="1225" y="-618.84" as="sourcePoint"/>
                        <mxPoint x="1418.63" y="-618.84" as="targetPoint"/>
                    </mxGeometry>
                </mxCell>
                <mxCell id="9O1I6l7ymoWSYBFQMa-3-87" value="&lt;b style=&quot;background-color: initial; font-size: 17px;&quot;&gt;Object Type:&lt;/b&gt;&lt;span style=&quot;background-color: initial; font-size: 17px;&quot;&gt; Tables&lt;br style=&quot;font-size: 17px;&quot;&gt;&lt;br style=&quot;font-size: 17px;&quot;&gt;&lt;/span&gt;&lt;b style=&quot;font-size: 17px; background-color: initial;&quot;&gt;Load&lt;/b&gt;&lt;span style=&quot;font-size: 17px; background-color: initial;&quot;&gt;:&amp;nbsp;&lt;br style=&quot;font-size: 17px;&quot;&gt;&lt;/span&gt;&lt;ul style=&quot;border-color: var(--border-color); font-size: 17px;&quot;&gt;&lt;li style=&quot;border-color: var(--border-color);&quot;&gt;Batch Processing&lt;/li&gt;&lt;li style=&quot;border-color: var(--border-color); font-size: 17px;&quot;&gt;&lt;span style=&quot;font-size: 17px;&quot;&gt;Full Load&lt;/span&gt;&lt;/li&gt;&lt;li style=&quot;border-color: var(--border-color); font-size: 17px;&quot;&gt;&lt;span style=&quot;font-size: 17px;&quot;&gt;Truncate &amp;amp; Insert&lt;/span&gt;&lt;/li&gt;&lt;/ul&gt;&lt;b style=&quot;font-size: 17px; background-color: initial;&quot;&gt;Transformations&lt;/b&gt;:&lt;span style=&quot;font-size: 17px; background-color: initial;&quot;&gt;&lt;br style=&quot;font-size: 17px;&quot;&gt;&lt;/span&gt;&lt;ul style=&quot;font-size: 17px;&quot;&gt;&lt;li style=&quot;font-size: 17px;&quot;&gt;&lt;span style=&quot;font-size: 17px; background-color: initial;&quot;&gt;Data Cleansing&lt;/span&gt;&lt;br style=&quot;font-size: 17px;&quot;&gt;&lt;/li&gt;&lt;li style=&quot;font-size: 17px;&quot;&gt;&lt;span style=&quot;font-size: 17px; background-color: initial;&quot;&gt;Data Standrization&lt;/span&gt;&lt;br style=&quot;font-size: 17px;&quot;&gt;&lt;/li&gt;&lt;li style=&quot;font-size: 17px;&quot;&gt;&lt;span style=&quot;font-size: 17px; background-color: initial;&quot;&gt;Data Normalization&lt;/span&gt;&lt;br style=&quot;font-size: 17px;&quot;&gt;&lt;/li&gt;&lt;li style=&quot;font-size: 17px;&quot;&gt;&lt;span style=&quot;font-size: 17px; background-color: initial;&quot;&gt;Derived Columns&amp;nbsp;&lt;/span&gt;&lt;br style=&quot;font-size: 17px;&quot;&gt;&lt;/li&gt;&lt;li style=&quot;font-size: 17px;&quot;&gt;&lt;span style=&quot;font-size: 17px; background-color: initial;&quot;&gt;Data Enrichment&amp;nbsp;&lt;/span&gt;&lt;/li&gt;&lt;/ul&gt;&lt;b style=&quot;background-color: initial; font-size: 17px;&quot;&gt;Data Model:&lt;/b&gt;&lt;span style=&quot;background-color: initial; font-size: 17px;&quot;&gt;&amp;nbsp;&lt;/span&gt;None (as-is)" style="text;html=1;strokeColor=none;fillColor=none;align=left;verticalAlign=middle;whiteSpace=wrap;rounded=0;fontSize=17;" parent="PmAsDYt7ePFWswJWPdAt-1" vertex="1">
                    <mxGeometry x="871.2" y="-598.84" width="200" height="341" as="geometry"/>
                </mxCell>
                <mxCell id="9O1I6l7ymoWSYBFQMa-3-88" value="&lt;b style=&quot;background-color: initial; font-size: 17px;&quot;&gt;Object Type:&lt;/b&gt;&lt;span style=&quot;background-color: initial; font-size: 17px;&quot;&gt; Tables&lt;br style=&quot;font-size: 17px;&quot;&gt;&lt;br style=&quot;font-size: 17px;&quot;&gt;&lt;/span&gt;&lt;b style=&quot;font-size: 17px; background-color: initial;&quot;&gt;Load&lt;/b&gt;&lt;span style=&quot;font-size: 17px; background-color: initial;&quot;&gt;:&amp;nbsp;&lt;br style=&quot;font-size: 17px;&quot;&gt;&lt;/span&gt;&lt;ul style=&quot;border-color: var(--border-color); font-size: 17px;&quot;&gt;&lt;li style=&quot;border-color: var(--border-color);&quot;&gt;Batch Processing&lt;/li&gt;&lt;li style=&quot;border-color: var(--border-color); font-size: 17px;&quot;&gt;Full Load&lt;/li&gt;&lt;li style=&quot;border-color: var(--border-color); font-size: 17px;&quot;&gt;&lt;span style=&quot;font-size: 17px;&quot;&gt;Truncate &amp;amp; Insert&lt;/span&gt;&lt;/li&gt;&lt;/ul&gt;&lt;span style=&quot;font-size: 17px; background-color: initial;&quot;&gt;No &lt;b style=&quot;font-size: 17px;&quot;&gt;Transformations&lt;/b&gt;&lt;br style=&quot;font-size: 17px;&quot;&gt;&lt;/span&gt;&lt;br style=&quot;font-size: 17px;&quot;&gt;&lt;b style=&quot;background-color: initial; font-size: 17px;&quot;&gt;Data Model:&lt;/b&gt;&lt;span style=&quot;background-color: initial; font-size: 17px;&quot;&gt; None (as-is)&lt;/span&gt;" style="text;html=1;strokeColor=none;fillColor=none;align=left;verticalAlign=middle;whiteSpace=wrap;rounded=0;fontSize=17;" parent="PmAsDYt7ePFWswJWPdAt-1" vertex="1">
                    <mxGeometry x="555.23" y="-598.84" width="200" height="230" as="geometry"/>
                </mxCell>
                <mxCell id="9O1I6l7ymoWSYBFQMa-3-89" value="&lt;b style=&quot;background-color: initial; font-size: 17px;&quot;&gt;Object Type:&lt;/b&gt;&lt;span style=&quot;background-color: initial; font-size: 17px;&quot;&gt; Views&lt;br style=&quot;font-size: 17px;&quot;&gt;&lt;br style=&quot;font-size: 17px;&quot;&gt;&lt;/span&gt;&lt;span style=&quot;font-size: 17px; background-color: initial;&quot;&gt;No &lt;b style=&quot;font-size: 17px;&quot;&gt;Load&lt;/b&gt;&lt;br style=&quot;font-size: 17px;&quot;&gt;&lt;br style=&quot;font-size: 17px;&quot;&gt;&lt;/span&gt;&lt;b style=&quot;font-size: 17px; background-color: initial;&quot;&gt;Transformations&lt;/b&gt;:&lt;span style=&quot;font-size: 17px; background-color: initial;&quot;&gt;&lt;br style=&quot;font-size: 17px;&quot;&gt;&lt;/span&gt;&lt;ul style=&quot;font-size: 17px;&quot;&gt;&lt;li style=&quot;font-size: 17px;&quot;&gt;&lt;span style=&quot;font-size: 17px;&quot;&gt;Data Integrations&lt;/span&gt;&lt;/li&gt;&lt;li style=&quot;font-size: 17px;&quot;&gt;&lt;span style=&quot;font-size: 17px;&quot;&gt;Aggregations&lt;/span&gt;&lt;/li&gt;&lt;li style=&quot;font-size: 17px;&quot;&gt;&lt;span style=&quot;font-size: 17px;&quot;&gt;Business Logics&lt;/span&gt;&lt;/li&gt;&lt;/ul&gt;&lt;b style=&quot;background-color: initial; font-size: 17px;&quot;&gt;&lt;br style=&quot;font-size: 17px;&quot;&gt;&lt;span style=&quot;font-size: 17px;&quot;&gt;Data Model:&lt;/span&gt;&lt;br style=&quot;font-size: 17px;&quot;&gt;&lt;/b&gt;&lt;ul style=&quot;border-color: var(--border-color); font-size: 17px;&quot;&gt;&lt;li style=&quot;border-color: var(--border-color); font-size: 17px;&quot;&gt;Star Schema&lt;/li&gt;&lt;li style=&quot;border-color: var(--border-color); font-size: 17px;&quot;&gt;&lt;span style=&quot;border-color: var(--border-color); font-size: 17px;&quot;&gt;Flat Table&lt;/span&gt;&lt;/li&gt;&lt;li style=&quot;border-color: var(--border-color); font-size: 17px;&quot;&gt;&lt;span style=&quot;border-color: var(--border-color); font-size: 17px;&quot;&gt;Aggregated Table&lt;/span&gt;&lt;/li&gt;&lt;/ul&gt;" style="text;html=1;strokeColor=none;fillColor=none;align=left;verticalAlign=middle;whiteSpace=wrap;rounded=0;fontSize=17;" parent="PmAsDYt7ePFWswJWPdAt-1" vertex="1">
                    <mxGeometry x="1217.98" y="-598.84" width="190" height="339.84" as="geometry"/>
                </mxCell>
                <mxCell id="9O1I6l7ymoWSYBFQMa-3-92" value="" style="group" parent="PmAsDYt7ePFWswJWPdAt-1" vertex="1" connectable="0">
                    <mxGeometry x="290" y="-779" width="79.24" height="55.16" as="geometry"/>
                </mxCell>
                <mxCell id="9O1I6l7ymoWSYBFQMa-3-39" value="&lt;font style=&quot;font-size: 20px;&quot;&gt;CRM&lt;/font&gt;" style="image;aspect=fixed;html=1;points=[];align=center;fontSize=12;image=img/lib/azure2/general/Folder_Blank.svg;" parent="9O1I6l7ymoWSYBFQMa-3-92" vertex="1">
                    <mxGeometry width="57.50146214099218" height="46.66913838120106" as="geometry"/>
                </mxCell>
                <mxCell id="9O1I6l7ymoWSYBFQMa-3-41" value="" style="image;aspect=fixed;html=1;points=[];align=center;fontSize=12;image=img/lib/azure2/general/File.svg;" parent="9O1I6l7ymoWSYBFQMa-3-92" vertex="1">
                    <mxGeometry x="49.2553002610966" y="17.46180426462546" width="29.9846997389034" height="36.94516971279375" as="geometry"/>
                </mxCell>
                <mxCell id="9O1I6l7ymoWSYBFQMa-3-93" value="" style="group" parent="PmAsDYt7ePFWswJWPdAt-1" vertex="1" connectable="0">
                    <mxGeometry x="292" y="-659" width="78" height="55.16" as="geometry"/>
                </mxCell>
                <mxCell id="9O1I6l7ymoWSYBFQMa-3-38" value="&lt;font style=&quot;font-size: 20px;&quot;&gt;ERP&lt;/font&gt;" style="image;aspect=fixed;html=1;points=[];align=center;fontSize=12;image=img/lib/azure2/general/Folder_Blank.svg;" parent="9O1I6l7ymoWSYBFQMa-3-93" vertex="1">
                    <mxGeometry width="56.60164117866469" height="45.93882879522568" as="geometry"/>
                </mxCell>
                <mxCell id="9O1I6l7ymoWSYBFQMa-3-42" value="" style="image;aspect=fixed;html=1;points=[];align=center;fontSize=12;image=img/lib/azure2/general/File.svg;" parent="9O1I6l7ymoWSYBFQMa-3-93" vertex="1">
                    <mxGeometry x="48.48452070123088" y="18.464949441192108" width="29.515479298769126" height="36.367027228646045" as="geometry"/>
                </mxCell>
                <mxCell id="9O1I6l7ymoWSYBFQMa-3-94" value="" style="shape=singleArrow;whiteSpace=wrap;html=1;fillColor=#b1ddf0;strokeColor=#10739e;arrowWidth=0.43796185699909285;arrowSize=0.27089953548693746;" parent="PmAsDYt7ePFWswJWPdAt-1" vertex="1">
                    <mxGeometry x="790" y="-711.5" width="59.3" height="40.16" as="geometry"/>
                </mxCell>
                <mxCell id="9O1I6l7ymoWSYBFQMa-3-95" value="" style="shape=singleArrow;whiteSpace=wrap;html=1;fillColor=#b1ddf0;strokeColor=#10739e;arrowWidth=0.43796185699909285;arrowSize=0.27089953548693746;" parent="PmAsDYt7ePFWswJWPdAt-1" vertex="1">
                    <mxGeometry x="1119.31" y="-711.5" width="59.3" height="40.16" as="geometry"/>
                </mxCell>
                <mxCell id="9O1I6l7ymoWSYBFQMa-3-96" value="" style="shape=singleArrow;whiteSpace=wrap;html=1;fillColor=#b1ddf0;strokeColor=#10739e;arrowWidth=0.43796185699909285;arrowSize=0.27089953548693746;" parent="PmAsDYt7ePFWswJWPdAt-1" vertex="1">
                    <mxGeometry x="1461.9899999999998" y="-711.5" width="89.63" height="40.16" as="geometry"/>
                </mxCell>
                <mxCell id="9O1I6l7ymoWSYBFQMa-3-104" value="" style="sketch=0;html=1;aspect=fixed;strokeColor=none;shadow=0;fillColor=#3B8DF1;verticalAlign=top;labelPosition=center;verticalLabelPosition=bottom;shape=mxgraph.gcp2.big_query" parent="PmAsDYt7ePFWswJWPdAt-1" vertex="1">
                    <mxGeometry x="1612.4199999999998" y="-661.84" width="58.41" height="59" as="geometry"/>
                </mxCell>
                <mxCell id="9O1I6l7ymoWSYBFQMa-3-105" value="&lt;span style=&quot;font-size: 18px;&quot;&gt;Ad-Hoc &lt;br&gt;SQL Queries&lt;br style=&quot;font-size: 18px;&quot;&gt;&lt;/span&gt;" style="text;html=1;strokeColor=none;fillColor=none;align=center;verticalAlign=middle;whiteSpace=wrap;rounded=0;fontSize=18;" parent="PmAsDYt7ePFWswJWPdAt-1" vertex="1">
                    <mxGeometry x="1551.62" y="-594.84" width="180" height="30" as="geometry"/>
                </mxCell>
                <mxCell id="9O1I6l7ymoWSYBFQMa-3-107" value="&lt;span style=&quot;font-size: 18px;&quot;&gt;BI &amp;amp; Reporting&lt;br style=&quot;font-size: 18px;&quot;&gt;&lt;/span&gt;" style="text;html=1;strokeColor=none;fillColor=none;align=center;verticalAlign=middle;whiteSpace=wrap;rounded=0;fontSize=18;" parent="PmAsDYt7ePFWswJWPdAt-1" vertex="1">
                    <mxGeometry x="1560.37" y="-740.84" width="180" height="30" as="geometry"/>
                </mxCell>
                <mxCell id="9O1I6l7ymoWSYBFQMa-3-108" value="" style="shape=image;verticalLabelPosition=bottom;labelBackgroundColor=default;verticalAlign=top;aspect=fixed;imageAspect=0;image=data:image/png,iVBORw0KGgoAAAANSUhEUgAAAR0AAAFRCAYAAABJ8HlsAAAABGdBTUEAALGPC/xhBQAAAAlwSFlzAAALEwAACxMBAJqcGAAAGtRJREFUeF7tnWmQXNV5hk2l4EeSym9+xSym/AdwTOxAghNTdpy4bJLgSrALIyyhjbhSduLYwoADEmKRWIwWzGKEhIQlzCKBWC2wwGxaMGhBQiuWRiBrQwtCI2m0zMzJ9917bs/tntOanpm+yzn9PFVv3e67dN/v3HueObe3+RQAAAAAAAAAAAAAAAAAAAAAAAAAAAAAAAAAAAAAAAAAAAAAAAAAAAAAAAAAAAAAAAAAAAAAAAAAAAAAAAAAAAAAAAAAAAAAAAAAAAAAAAAAAAAAAAAAAAAAAAAAAAAAAAAAAAAAAAAAAAAAAAAAAAAAAAAAAAAAAAAAAAAAAAAAAAAAAAAAAAAAAAAAAAAAAAAAAAAAAAAAAAAAAAAAAAAAAAAAAAAAAAAAAGSEMebU7u7uiyVjJNMkr0hWS7ZJOmQ5QO7ouWfPwVWSlyV6buo5erEsPtWevuALcuCGSOZI2uJDDOAXeu5KZuu5bE9rKBtycD4juVOyxx43gCCQc3q3Pbc/bU93KAo5Hn8iB+Kbkhck3fEhAggTPceF5yXfkLsn2W4AeSENf55kWXw4AFoLOffflnzBdgfIEmnov5BMlXTZ9gdoSbQPSKZI/sx2D2g20rhnSVbZNgcAQfuE9g3bTaBZSKP+h+SAbWcASKF9Q/uI7S4wWKQxfyLhhWKAE6B9RPi+7TYwUKQR77BtCgCNcY3tPtBfpPEmxm0IAP1kou1G0CjSaOPitgOAATLOdifoC22suM0AYJBwqdUX3d3dZ0sO2gYDgEGgfUlyju1eUIu00SnSQKvj5oKyoW8f1guUF+lT+tm2U2w3gzTSMFxWlRQVy5J1m8xrqzaYV9+1kdt6/631mxFP+eH1nVrExp+VHLENBCVDjo257qF5ZtTkWWbUpJk9kfvXzZgXLYfyon1L+5jtbqBIg/zOtg+UkIp0RDQjU9H7Oh/plB85RgtsdwNpj4viZoGygnSC4SLb7VobaYhX4/aAsoJ0woDRjiCNcIFtDygxSCcM5Dgprf07PNIA99v2gBIjxwnpBIL2Odv9Wg+p/2RpgF1xU0CZQTrhIMdqp0xOtt2wtZDCL4laAUoP0gkLOV5ft92wtZDaZ8ZNAGUH6YSFHK/WvMSSwrfYNoCSg3TCQvue7Yatg9R9Wlw++ADSCZLTbHdsDeQkvcwWDh6AdMJD+6Dtjq2B1MyXOz0C6QRJa30JVE7SR23h4AFIJzy0D9ru2BpIwStt7eABSCc8tA/a7tgaSMH6ASXwBKQTHnLMWusdLKl5f1w6+ADSCQ85Zjttd2wNpGB+sCtHOru6zLHjxweRTnNtHenofF3u3q7RdPLrgzmjfdB2x9bA1h0e3V0NJN/upU+3/P0t5vHXfj/gPPH6O+YH9z5SJZwkOl+Xu7ZrNI9Jjhw7bvc4H3R01khCxnbH8JFaT4pLDgwRyse/Hmp23/0lyYV1s3/+j3IVj3Yc7dS1o5RSZfIs0364w+5x9mib/PfkOeYHd822+VVNZpsfynTCnOeDFY/U1W27ZPhIvQFL59tm99Rzze4pZ9fNJ/P/E+nUpgDpjJo4wwy/+UEz/Babm6dVT2+dbm586GmkEwJSb7DS2afSmXJOL9Gkg3QcKUA6I0U6V940zVwpgqlEJJTcVvmMn4l0gkDqRTpIpzpFSGeCSEdHNbemZKNTe1tHOzc+NB/phIDUi3QKks5g4pSFjWv9/iSSTkd+b2j2SEcFY0c7IqBklKPzkU5ASL1IJ0/pSP6wbVf0j/FeWz2wvC750S8fjQWRit7X+brctV2jefXd9dHb5nlRkY4VTEU6lduxdMYjnTCQepFOzieyPpt2noGmq6vrhB8O1OWu7fqTPNHnq4x0EtHoZZZOkU54SL1Ix7MTWTteSJ9I1v0dOWF6tXQq0/gyK5LOrGe8q61RpC6k4z1Ixxt0f6N3rxLpRLGXV/YdLaQTEFIv0kE6haL7OyJ9eaWi0amOdGyQTkBIvUgH6RSK7u8IvbxKSSZKasSjHxxEOoEg9SIdpFMour/x5VXPpVRyO0n04cCHkU4QSL1IB+kUiu5vdHlV9cHAlHTkNtIJCKkX6SCdQtH9HXHrjHiEo6OaSD410pHp+Fl8DSIIpF6kg3QKRfc3+RpENNKxI574MisWDy8kB4TUi3SQTqHo/la9ZZ58FSJ1uRVJh2+Zh4HUi3SQTqHo/vZ8DUJHOzZ630bfveKnLQJB6kU6SKdQdH+rvnuVEk7ldR4J0gkEqRfpIJ1C0f2tfPfKSkYvsb4n8kE6ASL1Ih2kUyi6v9FrOiqYaKSjSV1e3cprOkEh9SIdpFMour+Vy6s6iaXDt8yDQOpFOkinUHR/ow8HqmCqLrF6op/d4Ue8AkHqRTpIp1B0f/XDgZVLq+St8pSA+I3kgJB6kY6n0tGfFU1LR+/7Kp2RkXT0rXIrHTu6qfy0hcznNZ1AkHqRjocn8qbtH5k1W7b1is73jVg60yuyGZYIJxrtWOlIuLwKBKkX6QR6IvuCiqTymo4m/c6V3FYBRS8k892rMJB6g5VO9M/2+pDOfqRTOCqSUbelpWOnqdv6ms64GU8hnRCQenOXTucnfzSHlt4juTfT7J3+Fado0tk765vObZuat+4zR9tet9X7xbt/2Gqefn25mf/6ssyijz9CL69c0onuxyOfH06a7dy+2dm9/4CtPj+QTsYc3fqWdPgTj0CCytRzTfvvbvFuRKV7O/vFxWbELdOjkUZP4pFHPE1up+enY+eJNKqm6XUjsSSCsVEJ2XnRcrussm6v2Esyve1aR+clP4PaK6ltJWu3bIsbIEeQTsbE0nF0zlDjuXQqnT6Jdk77om+l41YtdwigdpokNb9KKHrbppdokmX1btfO0/2JXpi2+yWpPGay3M7X2+uQTrZIvUgn63gvndSlTyKbdKo6rb0fTVPzkqlsPyxZv2Z5ldxSzxO9kxVJwya1Xq/HSieZl/qPErXLo8e2t5Os27I9boAcQToZg3T8oGqk4+r0yf1ECpV5PRKK3/qW+7XTZN1oKveTZXa7YennSSLzet5KT82PltnHrJoXz4/e/dLtosur+HkS2VQ9nn1MRjoZI/UinawT0uVVunPr7Sip5ZVlPR27sl5qWdU6er8q08zQ9PqSeL1pZliyfmpZJcn89PLaeTWPW0lqPiOdjJF6kU7W8Vk6L4l0qt5ZUoHEt/WnJ+pKQOYNT/5rp96XUUZFQrWxlz+Vx9Ztk2XJ/eSFZU3Nsmh58i9sEnnUPpeu43oMSTw/2QeRzgdIJ1OkXqSTdXyXjnTGXpc70kmrRim2w/YsT03rySZJJKRUx9ekb0f3bdLzkvny+NH2yf7UrpMkkZsmWc9uX3m+mxjpZI7Um7t0jm1bYfZM/6rZm2H2zPiq2f2Lz7slkMqee/5a9uUrzsdoWmZ8zRxaNNlL6fxKL6+0QycdVDunTIdPsJ1VhTHRjiAqHbpGHpWoHNLzU9Nofbmd3iZ5jGienZ++n56fiKN2O1dkm6HyXNGL0JX17VSWMdLJGKk3d+l0H+swnfvaMs/Hsy8RsfTxieS5w0zn3s3O7ZuZroO7bfV+sWrTVvPcopXmucU2ers2yXydvrmi9/x00vP0tr0/Ivlh9mS0kshAb0fTaeZ/pszp2TbZ3jF93j5uNE3mp29Xrftur3l7Pmm31ecH0gkBvgbRFLRlMo+0f+WXA5Mksknd139B0yXrOh+jiSkCpBMCfOHTGyLpJL+RnBrhRC8m69SOfm7k93TCQOpFOkinUHqko6+xiGCS12eSUY7cVwEhnUCQepEO0imUHunEI5p4hFP9mo7O4z98BoLUi3SQTqHUSieKjnaQTphIvUgH6RRKJJ3o3avU6MZmqJ3G0uHyKgikXqSDdArFKR2dJlHpSMY/zEgnCKRepOPZiawdr5H4gu5r5fIqkkxKPvYyi8urgJB6kY4nJ/KxtuVm13XnmZ1Xn33ijJFc+1fmaNsyu2W56ZFOLJuhle9iiWzs2+X6Y19IJxCkXqTjyYl8dPMys+vaz7tFUxtZT9f3gUg6yeWVSKbyDXMd6djRT3R5xVvmYSD1Ih2PpKMjGKdkarJDRzo+SWfC9Mr3sq6o+WKmztfLqxv5v1dhIPUiHaRTKJF0dKRjL6XiaUo8EqQTEFIv0kE6hRJJJ/kmuyaRj96WafTP9yRcXgWC1It0kE6hxNKRkY6VTGWkEyWeF72mw+d0wkDqRTpIp1Ai6UQvJItgkpGOTPX3bpIfXo9GOnxOJwykXqSDdAolkk7yc6NJEgHZxCMdpBMEUi/SQTqFEkvHXl5Fwum5rIqEIyMfPqcTEFIv0kE6hVKRjkgm+mnUm2LRxAKK5/GJ5ICQepEO0imUSDq3zojEoklGPBXx2PlIJxCkXqSDdApFRTJcRjrxf4TQ0Y29vLLCiaQj93n3KhCkXqQTqnR8++5V8la5ikan0f1EOtPMjQ/Nb6p09KH6Sl4gnRBAOn5dXqVeSI4uqyry6ZHO+CZ+Irmzq8sseWej+c3CFWZBnby1/P3cTg2kkwH7Dx42b7y30Zktu/bYtZoI0vFKOiMi6aQuqxLpSKIf8pJpM78Gcayr09x4xxNmyOipzlxx1VRz2+TmjqxOBNLJgD9s/8j88L5fSx7plRd+v6r5Bxfp+DfSSV7TiaTTM03+u2gzX0hOpHP5qCnODBk9BelkhdSbi3Q2/nGnGTlppjNPL1nR/IOLdPyTTiIaR5r94UCkUyBSb7DSCe2f7QUvnUQyafnobUmzPxyIdApE6g1WOgee+1+z71f/fsK0vzwe6RSMHvuxDz5lxj7wpBk7TabTZKr3NZXbT5p757/StPME6RSI1BumdISuQ/tNV/u+E6b7yCG7dvkJVTrKgUMd7hzuuX3w8BG79uBBOgUi9QYrndAIWTp5g3QKROpFOp6AdJoH0ikQqRfpeALSaR5Ip0CkXqTjCUineSCdApF6kY4nIJ3mgXQKROpFOp6AdJoH0ikQqRfpeALSaR5Ip0CkXqTjCf2Wjic/bVEESKdApF6k4wmMdJoH0ikQqRfpDAbd75wSS+dzTsnUpiIdx+NkFo9AOgUi9SKdAXJ85/umY80C07H2xaocsamdn17mWt7Xsvbf3W92XnOuUzK9Iuu1v3p/1faux00vcy1vaNm6eHp81/u2ZcoP0ikQqRfpDITuLtO+YIp08HPyy0916hBM3dRsn2nOjtpD2yUP9HwZTBqVTpdj2/6kUWRdpJNGm+7w0WPmYMeRAWd121ancDRz31xm2h3b9Ce6f7mi0nlx6gBEEGikHbQ98pDOkaPHzcZN283a9VsHnHfXbDFXj5vtFI5GpXP9LY86t+1PNm/ZFf00al8gnRqOd3aamS8tMjfNeXbA+dmsp5zC0fzkgcfN+DnPOLdrNA8vXGz3NieQTnVylM72HfvMD66e7pRF2XLDhMdMewPfjkc6Nah0bnvsBacwypI75y6we5sTSKc6SMcZlU4jP8mBdGpAOg6QTnWQjjNjVTpy+d8XSKcGpOMA6VQH6TgzbsLjSKcWqRfpDASkUx2k44xK51DHUbvn9UE6NSTSGSWdezBxyUITLZ88qyfJvLvstGb5yGg601w15eE4Ux82U+YvtHubE0inOkjHmXETGen0QuptQDpd5pmlK830BW8MOCqFESKPWuHovNsf/415atHySl5atsYsXbepkrc3tJnt+/abPQfao+xrPxTtkxynOLKPuX/KB+lUJ3fpzIje1h5MXJKojWu7/mTsRF5I7oXU26d0EpLOPZA08uHAyvqOD1VVltkUDtKpTo7SOXjoiFn8+w3m1TffG3Bekfz4+llO0WhUGNeOnyPrrum1bX/yzspN5ujxTrvn9UE6GRDmJ5Lzlk4/nmuMY16W+enZ5sALk3KRjhL9kRpEjnU29olk/WCfa/v+pBFkPaTTbIL8wmeX/AXrPG5zLHW7XpJ1UtPoMWrnu3N009v9+5a5rO98Tuf0REmtU7W/tctl6gl896pApF6kMxh0v3PKgH7awvE4mcUjkE6BSL1IxxMGJB1wgnQKROpFOp6AdJoH0ikQqRfpeALSaR5Ip0CkXqTjCUineSCdApF6kY4nIJ3mgXQKROpFOp6AdJoH0ikQqRfpeALSaR5Ip0CkXqTjCUineSCdApF6w5WOfoS9gfhCyNLpkuPfSJoF0ikQqTdM6cjjbX9wjvnwjnvMh7f/on7uuNduUH5Cls4dMxaaiQ/+tm5um77QTJ+3uGnnCdIpEKk3SOnoCGbVv3zPLDnjfLPk9L+pm6VnXpDbiTVYQpWOtv8ZXx9nTvva2Lo5XXLx9++TwSvS8R6pN2zpqFxO+2LdLP3M3yKdgtH2P1Ok8+l/vKFuVDxIJxCkXqQTqnTakE49kE6BSL25SOeDXXuj/0918yPPVeWmR541r63agHQagJEO0gkCqTcX6XSJBA4dOerMsQZ+Wa2/IB2kcyKQToFIvblIJ2+QDtI5Efr2+ytvrDZPzF9sHn+qd3S+/lRpXqcG0gkApIN0+kIfSZ+7buLVckGeD+n4DtJBOj6BdAIA6SAdn0A6AYB0kI5PIJ0AQDpIxyeQTgAgHaTjE0gnAJAO0vEJpBMASAfp+ATSCQCkg3R8AukEANJBOj6BdAIA6SAdn0A6AdDS0hljpcNPW3gD0gmAEKXT+dEW88kTN5hPHv1ZTx5L3U5l/xPXy/ptdstyg3SQThCEKJ1QQTpIJwiQjj8gHaQTBEjHH5AO0gkCpOMPSAfpBAHS8Qekg3SCAOn4A9JBOkGAdPxB21//2Z5LNkkq0gn0WCGdjDm+b4/5eOEzkmczy/6XnzUrvvytvqVzxvmy/nO9tm92Dq9daav3i2VrPjRzX1qRaea9tNKc8c99S+dLV0wy83670vkYzcxHe9tt9fmBdDJm/+K3pcOrDPKIWzbVcW3XxJx+gdl8/e16ZtkW8AMdgdxw9/PmTBHCGdLps8rp/zTW/KVDNL1i13U9RrOi/7548YrNtgXyA+lkTCwdV+cPNDKa2nyDn9K5/u7noo7olECgQToZI/UinayDdLwK0skYqRfpZB2k41WQTsZIvUgn6yAdr4J0MkbqRTpZB+l4FaSTMVIv0sk6SMerIJ2MkXqLkY5+fibruATgimvbJmbpmeebNl+lMzWWjn5OJsu4Or8rrm2bHaSTMVJv7tI5tH6jee/yUWbNt6807106tGq65tvD7DRO9fwkrmXV07WXjTRLzzrfLZmarLn0il770ft54+fsmddzu3Y/ovvfGV41f8dDc7yTjrJm0w7z4qJ1mWbhkvUNfSL5omFTonVdj9HM7Pn4oK0+P5BO1mjn6+7KNPo1iNWXDI1HGw7RJFl65gXRuultG023Y54r8Xr+CUfR0U4eafRrEJ1yrFzbNzNFIM+LdHyH7175g7Y/X/hEOt4TqnR0X19ftNbceteTcX7+pJkwqWequeuXz5s/7thntyg/SAfpBEHI0pn3zFIzZPSUurlqzDSzsW2H3aL8IB2kEwShS+fyUVPqZvRPHkA6noF0AqClpTMG6fgG0gkApIN0fALpBADSQTo+gXQCAOkgHZ9AOgGAdJCOTyCdAGht6fCWuW8gnQBgpIN0fALpBADSQTo+gXQCAOkgHZ9AOgHAazpIxyeQTgC0tHT4GoR3IJ0A4PIK6fgE0gkApIN0fALpBACv6SAdn0A6AcBrOkjHJ5BOAJRVOvpcg00jl1cbNu9wbtvf5IE+D9JpIekotu6gKKt0Fr62yjwy742ezLXTJ2ruu24/+Wa03rjbHnfKJsmw/7rH3DfjxfqPk9yuTWrZHHmefR+3S9vYHc8QpBNju2NrYGsOirJK5+Y75prvjpzslEWS79be72P9ekm26+/2+vxDRk81H2zdjXRyxHbH1kAO+hFbdzCUWTqujl62IJ180T5ou2NrIAXvtLUHA9IZXJBOvmgftN2xNZCCt9jagwHpDC5IJ1+kDdbb7tgaSMErbe3BoNJZN/xHZvnf/5tZduG/1s2KL38L6TiSt3T+4XuTzd9d/vO6uXDIJDP8/+aE/JrOO7Y7tgZy0OfbwoPi6M6PTMeH206crdvs2vmAdNxs3bHPfNhHdu45YNcOD+mDj9ru2BpIzRPj0iFrbr5znrlcOvR3JY1Ok+j9OG5RJNF3q070OK55tfeHXDXVtH3wUW7SATPOdsfWQCx7mS0cMmb/oQ6z58DButntmFeb2XPfcMomyegfP2BWrN3i3LY/OX680+41ZI32QdsdWwOp+bS4dMgaHTkMNo1+DcK1bX8CuXKa7Y6tg5g2uHewQkSOU3Bf+Gx1tO/ZbthaSO0z4yaAMtOYdPz6wmerI8f0ftsNWwup/ZK4CaDMIJ3wkGP6ddsNWwup/WQpPrhPJodGQ9Lx7KctWhk5nrtkcrLthq2HNMD9cVNAWWlIOrym4w1yPCfb7teaSAN80bYFlJTGpMNIxxfkeH7Odr/WRdrh1bg5oIwgnXCQY7nAdrvWRtriorhJoIwgnaC4yHY7kBP7t7ZRoGQ0Jh1e0yk7chxftN0NFGmQz0qC+2GvEGhMOox0yoz2Le1jtrtBgrTNuLiJoEwgnSBorS93Noo0zClygq+K2wjKAtLxGzl+q2Vyiu1mUIs00DmSg3FzQRloTDq8plNGtC9JzrbdC+ohjXSVbTMoAY1Jh5FOGdG+ZLsV9IW0F6/vlISGpMPXIMoIr+P0F2k0fl2wBDQ20uHyqmQgnIEiJ/wE24hQEOIcM+/Zt8xlIpd6GX010ikL0meus90HBoq04zVxc0JR7N77iVmzYWvdbNi83RzuOGrXhiIQ2SijbLeBwSKN+R1JuD/NDzAIbN+41HYXaBbSsGdJNsbNDACK9IlV2jdsN4FmI23859LAk+PmBmhtpC/cKZM/td0DskQa+wuSt+OmB2gt5NxfJjnPdgfIC2n7k6ThvyF5XsI/MIGg0XNceEHyTbl7ku0GUBRyIPT1njslu+NDBBAGck7vsec2r9uUFTk4QySzJW32uAF4hZ67kjl6LtvTGnxBjt+pcuAuloyRTJO8ItFX+7dJOuJDDJAveu7Zc3C15GXJ/ZIfSy6Wxafa0xcAAAAAAAAAAAAAAAAAAAAAAAAAAAAAAAAAAAAAAAAAAAAAAAAAAAAAAAAAAAAAAAAAAAAAAAAAAAAAAAAAAAAAAAAAAAAAAAAgRD71qf8HTR8uiX0UmpgAAAAASUVORK5CYII=;" parent="PmAsDYt7ePFWswJWPdAt-1" vertex="1">
                    <mxGeometry x="1598.1899999999998" y="-843.5500000000001" width="86.86" height="102.71" as="geometry"/>
                </mxCell>
                <mxCell id="9O1I6l7ymoWSYBFQMa-3-109" value="&lt;span style=&quot;font-size: 18px;&quot;&gt;Machine Learning&lt;br style=&quot;font-size: 18px;&quot;&gt;&lt;/span&gt;" style="text;html=1;strokeColor=none;fillColor=none;align=center;verticalAlign=middle;whiteSpace=wrap;rounded=0;fontSize=18;" parent="PmAsDYt7ePFWswJWPdAt-1" vertex="1">
                    <mxGeometry x="1551.62" y="-398.84" width="180" height="30" as="geometry"/>
                </mxCell>
                <mxCell id="9O1I6l7ymoWSYBFQMa-3-110" value="" style="shape=image;verticalLabelPosition=bottom;labelBackgroundColor=default;verticalAlign=top;aspect=fixed;imageAspect=0;image=data:image/png,iVBORw0KGgoAAAANSUhEUgAAAIAAAACACAYAAADDPmHLAAAACXBIWXMAAAOwAAADsAEnxA+tAAAAGXRFWHRTb2Z0d2FyZQB3d3cuaW5rc2NhcGUub3Jnm+48GgAAFGZJREFUeJztnXt4FtWdxz+BJCQESQIiEbmoIC4JosWCF7zRVaorCBGKiO2uF2wXbbeifba2PF767HqtF6wXapVVUWi7tgpqLVR3EUERFBeEgBCkSDQG8JKEO7nM/vHLwMyZM/POvO/Me0ne7/OcJ5kz55z5vXN+cy6/24EsssgiiyyyyCKLLLLIIouOjC7A5cAfgA1AI7AH+BiYD0wG8lNGXRaR4jLgE8CIkbYAlSmiMYsIkAPcR+yOV9P9QKcU0JtFyLiH4J1vpvtSQG+oyEk1AWmARuAo8yIvtxPfP+94Jozsy+A+3emUk8Om2kZeXlnDvLe3cai5Va1fCSxIJsFhIssAsAI4E+CY4gKe/+lZlPct1hasqmng6kdXUFd/wJq9BagADkVNaBTo8AzwqyuHXlT9+Z7FBuT82z+dTJ8ehZ7lq2oauOyepepIMBl4MUo6o0JuqglINa79zsCxGDm+P4SKfsVMPfd4nl2y1Zo9ngxlgI68ir0U+Gz4LYumL1m/I1DFyjP6qlnfDouoZKMjM8BvgeN2NR7Mu/WFNYEqDu7TXc3qExZRyUZHZoAS85/ar/ez92BzKmlJGToyA9RZL6prd/uuuLm2Uc36IgR6UoKOzACrrBcvrazxXfHllZ+pWStDoCcl6MgM8Ir1Yt7b26iqaYhZqaqmgXnLtqnZr4ZHVnLRkeUAeYiW70Qzo6ykgGd/chYV/QILgoYAGbmI6JxqAlKIVuBzRIgDwJ4Dzfzx3e182XiQkqI8unfNo6mllXXb65m9qJpfzFtL474maxsGMA1RHWcRA0OBWcB6RMe+p+3/WW33UoVHiF8Z9GQK6M045AOPAy24v8hm4FFSY2yxwIOuWGkj0DX5JGcO8oH/wf8LfZPkMsG0ALS5pd8lkd6Mw+MEf6G/SRJtA4HdPuhpBKqAeYjqd46mzKQk0ZxRGIoM7YdfVHHZccaUWc8ZM1dtN2au2m5c+chc4+gTBummg4qIacsF3lWeuxvYqeRdoalbhAz91nJfA/0jpjkSRCkHmIZll1Fcdhw3vPQ25ReNo0tRN7oUdWPIhWO5ft5iuve2idI7A9dFSBfAL4CzlLw7gR6WawNYoqm7F7gSOGjJKwVeIAN3VVEywEXWi0tuvZvC4lJHocLiUi75+V2edUPGCOA2JW8hsp+3duB6ZETQYQ1wq5J3LjAzDAKTiSgZoJ/1YuDZo10LDhr1HTVrQAT0gAzfLyBCIBM7gOsBlYj/jdHWI8BflbzbgFGJEJhsRMkAvo1NDMNQs7oBUwGH3jVBPAAMtj4amW52EZwBDOBq7EqlXGSxWKKrkI6IkgE+tV5sXfGWa8Gt7y1Vs3KQF7kTeA24FuiZID2XAj9S8p4E/gL0xr7wbAEcRGmwE2ECKwcPIIMERFEuWsqR+RaAuk3rGHbpJPIK7DZ3+xu+4cWfTWN/wze6NnKRL3Y8cDNwHjI6fIZIEv2iF7Cora6JzcBEoAkYh30r9wHwmM+2P0Gsis+25FUANcD/BaCx3WEYivSve+8+xhUPPWPMXPmpMXPlp8aUWc8ZPQcMjEf40gIsA27C33pBlfY1YWFORJhjvX9PwN+aD6xW2tgDnBywnXaHhwneufOQDtjss3wr8D6yKj9JQ8N1mjq3K2W2KPcvjOO3DkY63drOajq4L2Fn4HWCMYDV7+4UZH/+UYD6HwF3tNXVSfvexb5AHaDcPwB424a741oNPQ/E2Va7QQHwBN7KIGv6ApmzVZyEfOXvI1+9n7b2Kde7gUFKu9coZXTCnyD4o9JeK/DdBNtsF/gD9hezH5GxP4141VjvxXK1GoDM/8vwz1jm1z8K++7neaWMKiQKihJgm9JmHXBMgu1mPD7G/lLOs9y7DWdn+RUHlwHTgTeQxZ0fRqhFRqV/RIxCrPfCEOSM0tDyOh3YAqsE+7DdjEjlTLgpZwYGfE5P4Mf4nyLUtBu7lDAR3K5p/6aQ2s44XIT9RazVlPGzYPOD2UobrYgCxw8DHEB2IZeTuKFHZ+BtTfunJdhuRmIm9hfxlEs5nYFGkDn5Upxf/xNIZ05EOrdB8wxdqge+F+DZOvRHVMXWdjdiH/06BBZifwnXe5RVhTaHsAtt3NALWWxZ636M80vugjDKs8RmglqlbhHBt4iTNO26fQDtFl9gfwGnepTVdeQmYn81QRlnOLEZYIul/DXIEN6ELDinIwtQP1AljQYdyIqoP/YfvofY87puKJ/tUT6eqeNnSvmXgXMQ6eUGxB7AulPZoXmGX5F0V/RWRI+SflbSoUMdAv1o2UC/mLtUUy7exaMqobwxRvlYoulYIunTkBHEz/ojlVbSoePX2H/cr33WK0KGfmvdOuxSwni3j3k4mWZIjDojcCp8vNJHiBj7FEsbNweob5B8K+lIsBT7jwqysh6BU6BilRLqBEjTfLQ7SqnzeQCa4hFJb0YUXPN9lremZFlJR4LOODVkXnOlDjqByjSEOYKKkE2ojPN8QJpMDCA+kbQBGAXFPYzhU24wxsx83Bgz83Fj+JU3GkVHl+mmg8ispKMWTQ7DLvTZgf+Vs4lcRKBiteLd09aWdajfgQy3u3y0+RZwvuX6WuCZgHSpKEM0mZcDFxBjDVJQ3INzb7iTvEL75qZp/16WPX4HBxptBjIPI9NH6IjaPXykcr1KW8obzcA/Y7cA6oa98w2O2PbFQlfawsJZEMv+zw/qkIXrRQgzXIeYmx3UFS6/ZIqj8wHyCosYcskUNTsyK+lMYACQ/fgMj/umbZ8fjEKEQSY+QbFfDAFfAf8FjEW0gFchTHoYRw90H9V7DXLcCzpt+kamMACI2vgVTf5mZE/vF0GtfxNFI7L42+e7huHIiSycX5QMUIR98WIgK+dUI9kMkI9MYbb11pdb3UMKaO79PXSq2hAlA5yOnXM3A1rTX5+YhoR0VzEY/2ZXxW10mTBI3ALIDaXAz5HOew5FJ7HpjT/TtH+vo1LT/r1seuPPavaiiGiMFKqodW4CbQ3C25PXTUqo4jKl3kcJ0OSGExGvoZiexwXdS41vXTHdGDPzMWPMzMeM4VNuMIp69tZtA0+IgM7I8d/Yf8iP42wnFwnorEr7VEteVUqowyylzqw4adLhTOQ32zyiQ0gPhkhjUrEN+w9RF4R+EaYgSLUu1k0pQdAJ2fcv19CoMuwjiLh5UYyy1vQ6GehxDOJqZf0hB7BvvfxiJOGJgnvjNEvThwOLjSJEeVSteb41fY6Ija1u0QXIyOM1UjQDdxOeeVrSMQ77D4onkGLYyqApIdBUBtwFfIl3x69BVv5eipwK4KG2sup64cM4aEsr/Cf2H/RIHG38VmmjFRGsqDgR2Wtby76P8+tRjTLuDkDLSchvUP0M1LQcYf6gIvYe2HUJzVhOMclE/A37i/l+wPoXo7ftc4PO/Us1CInH/escJAqol9bvILLDSdSIo0ppN8ogGZEiB6ch5GDPGnbEaxL2slLnECI9rMKpkfRy/zIFN2tw73QDmQbuIrhyyw3qCHVnSO0mHSdj/yFfE2xIVA1Im/C3g+iF0/bQLbUiQ3qBpX4psmBTHUXUVI0sAMO27P0X5Tmvh9x+0vAD7D9kcYC61+N84aonrxcqNfW90mIkjoEfwc1yZMsXlfS0H/adgUMcmCl4FPuL+w+f9XTSvqCOIfHEJfRKzYhwR1UfR4UZiF3DGuAfkvTM0LES+0sc56OOm7RP9eT1wlCUxVqfwkLjyZEjjY1jxxobx441njrjDGNgt25+Ot4U3JyoeU67Qthqxi44bf79qIB/ifMrm4HdLj8W/hXLWqNPYSGLR4+mJP/IVvziY4/lzJ49GbNkCV/s369roxaxwfsdiSmuMgZhz2enYpf4fYoMaV4YiT5u39MBn21T895xyim2zjdRkp/P7UMdO7Z9yCLsBOQ42FR2fjliRvcV3kYwoSBsBghqAFKEGGRaRyIzbl9Q2EK1nneMuzv+Bb17q1kGspdPh9M/70ZsKXsgJvT9vIsnhqgZIJa41StuX1D4/i2auISOA4FTCOuw1RmnAUuoSOUIMBb3uH3xYJv1Yvkudx5a5ry3Pc5nRgH1nUUaeTRMBijF/jU3467U6IXM8VYBUVDbPiscBhP3VlVRf8g5otcfOsS9GxwmV3+L87lR4B3lOmNCz47BvpXyOo4zXmmfijxEeqcNAHFsYaExe8SIw9vAJ0eONE7QbwP/SvqEdz0Kuwq8lcSjpCYFqm7eLVzqD3F2QDyBmc4B1mnaijdtI33OAFZ9EBM1XEkKXsFOtM4wIwxpX09k+nDT0H3lku8n7UVE2amGepDVfaklxx9UDd4w5X6i0r4cZK+unuphpl1I4OYuiDjay1evBfHiUaWWZnqC+CyYwsJkhZ7lKaTFFwbg7FjVls3Nts8PhiD+fLrOakXO8VHnyQrE9Godog7eiwRg+A1HdPddcMYhMNN7RLwH90AfhZYD2DWXaQeVY5co908nPk/eQkQv7hZYYRMS6y9RXIXTZsBAdP5jQmg/HmxVaDk3RXT4wgO4z1lFOINE7kSMNL0wWlPPTPsQxghzmB6ChIbRjTD3kvxzlucqdKhH1KQV1Hh4Ey33nsT5QnW2fSbKcP54a/oL0TlKdAf+5PLc17Bb90aNHynPT9sDqnVBIMy5M4htXyfEFMttFV/bdj9q5AA/RR92dhvJ2ypWKM/+mjQ97f007IR+0ZavM9Hagv3UDmsb76Hv+BZkFAn7/KBYuADnzsZAglxHfawdCCOqH0NaRg9TBTvm4k4dSpuAM5S6Rcj86uYk8SHxexSFgb44/Q7MNJf4zxXwi1eVZ6q6k7TA09iJ/CX+pH3jEHsB3cutR4bhdHCLykWYVEfnauD4CJ99K06mSzuo/nY/xOmosYojjhp9EYNHt0Xeq6Ru/+2FVGwVz1GetTWi5/hGPnKe7nxki6Z7IWpETFPa56m4QUK1XJy8nxIXTkXvD9iMjHxhB90qwCkDOS7kZ/jGRKST3L5ctzQN4eT1LvcPIg4WUc+nYaEEpzbTTAsJX6uoeh5PDrn9mOiMU9DjNy1DxLRuipulxI7QmY7IQb543eK1Gu9g2EFxn9J+PH6WCSHezjdwP8LFVNxk+hEqF6JXTu0lPJmFGtVkdUjtArE7YCKynTuM3PxcTr9qNKeMP5NjTpbpaOemz1m3YAWr579F86Fmr/YMJCDjvyN73PaAfsg70m1XZyOWvdpYgT7RE/lgzL5qQSSSuxNo8zC8GCAfWdAddo7oXlbK1GdnUDZEv0iv27Cd+dfMorFOa1VdhcTYXxY/uWmLLkg0z+mae6uQiOk1CbRfhZiLmxiDnFmQMLxEi5VYOj83P9ez8wHKyvsz9ZmbyM132HfMBb5F++x8kC/8BsReQY0HOBIZtuM5jdREZHaCXgww3npx+lWjPTvfRFl5f4Zfeb6anY+sB9o75iKHSKseTebh1fFuFVUGOCeONrTwYgBrPD2GTfDvHzms8iw1K11s7ZKBtUgAKzWqaWdku7uA4FtF1SLoTEJy6/NigGOtF71O8i9/6DXYUbYfMm+lo4QvCtQDE5DT0lqUe5chIWyCbBU/4YiSDUSHEsrxc8lSL3ZBfPG3Iy9nBXJy1gxkyMz07aAOBuLmdTFOT6dBiJIpyFYxkmnAiwGsHMeuav+Hauza7Fm2GBnCpiFRst7BeYzM2W2pPeBNZDpV3eS6IiFk/RqgRrIQ9GKAD6wXH728wnejQcq2weoM+jDyY9/BGSVzJLKa7hv0ASlGDXJAhe7ks+mIRVWs6VFdB0Q+Aiy0Xqye/xZ1G2K70NVt2M7q+Y6DwRYjBh+NLtWsXkTXWv63Gl48jHxFbyAvtB4ZRs2pZAzpzRiJbhXXIBJGE2UEP1vZgViCoA3Wh3QvK2XqMzdRVt5fW8FFEPQpEmfP3Ab2Q4QaFUhAqQZkKqhru/82RyxglyKWObSV82MV1IAIsNYrfxMRxISNUxHpoeoT0YKYz9+DrCFUvIndCvpqZBqJG7EWX5XAS9aMznm5nD71fIZVnsUxg+WD27GphnUL3mP1/KW0NDlEwRNQRpMY6I2Iig1kbWAGmFhGYsNeujFGCdJ5OrevV5EFYr2Sfydwh+X6KcT+IlLcT/zKoIdCpKMMmQZWIC8mXprUZN2V3Exyt6teWsUtOLeK39WU24PYZsxHVMWhnzPYCadK0k96kGi3d6Zs4Wak8zKZMfxoFSfhbkKnMk5lFEROIHZ0bAM5ISMSAnwiUxmjH+6W0W75Xul+fMh5gn6heQgjjEf2tn3bHlLXRuSCtpSOcv9+iPHJUOVvvCHjVYSxxvDSKsaD+5Fja1zRHiVwQZGOjPEDJFp6V/VGl7xOTKvsz5Qxfag4UQKKV23dze8X1zJnwXYONjnCHVXi4YeZZQB3JIsxqpDttvnXZIwRiNzjSOzDXgUsfPDbDDtJvxteW93IhFs+oHbXAWv2FmTLrY2AlmWA4IiaMRoRRmhAVv2AfPnL55zt2vkm1lY3cu5176ojwWTgRV35LAOEh0gZ48bJx/PQjPLYBYGbHqxi9p9sh6HOw+XMhiwDRI9QGGP5nLMZUe7PjGDl+nrOu/5da9YmXIJPR3YkaRaHUdOW1FB0pcjcXG75eyouR98NOcH/CTIVAx1lXY05sgyQOnyDaPhULZ85YiwkzrAwmkiojgwTaelv3sFhjhbbrJkb/+7fCnzD1j1qVq1b2SwDpC/WWi/mL3LtQwd+v9hhkON6aHeWAdIXtm3bnAXbWVvtZk5xBGurG5mz0CFjctXGZhkgffEaFnfwg02tTLjlA08mMAVBh+wygGo8GCAdAjBkoUcLYkQ7xczYva+Z5177jJ1fH6S0ez4lR+VxqNngw00NPPD8Vn5yfxX1u21qGAOxsNqYXNKzCBOJ2GPckwJ6swgZnRDLqCAdn6rYhllEiEqcx9/q0mYUt74s2g/ygO8BLyDz+h7ETXwDcvbSJDL4yPksssgiiyyyyCKLLLLIIhn4fyqFO1owKY1fAAAAAElFTkSuQmCC;" parent="PmAsDYt7ePFWswJWPdAt-1" vertex="1">
                    <mxGeometry x="1591.12" y="-487.84" width="101" height="101" as="geometry"/>
                </mxCell>
                <mxCell id="9O1I6l7ymoWSYBFQMa-3-111" value="" style="shape=image;verticalLabelPosition=bottom;labelBackgroundColor=default;verticalAlign=top;aspect=fixed;imageAspect=0;image=data:image/png,iVBORw0KGgoAAAANSUhEUgAAAgAAAAIACAYAAAD0eNT6AAAACXBIWXMAAAsTAAALEwEAmpwYAAAgAElEQVR4nOydeZgcVdX/6/fiq7gviGT63JqBEBYTEZTFBRBlEUFQUEEQRUQFURFUJGzKokJ4VRQUBEFB3DAoCMlU9WRhCIFAYLpqEiZT1X1vZyDs+xqWbP17Tk0PDsMsdatr657v53nuP+JU3Xurc8+9557zPYYBAAAAAAAAAAAAAAAAAAAAAAAAAAAAAAAAAAAAAAAAAAAAAAAAAAAAAAAAAAAAAAAAAAAAAAAAAAAAAAAAAAAAAAAAAAAAAAAAAAAAAAAAAAAAAAAAAAAAAAAAAAAAAAAAAAAAAAAAAAAAAAAAAAAAAAAAAAAAAAAAAAAAAAAAAAAAAAAAAAAAAAAAAAAAAAAAAAAAAAAAAAAAAABakSWrVr0x6z4AAAAAIEF6qtW39/rV3RxPneB66mrXUytcX83GpAMAAAAtQl9f31uc/soejidPYiPv+vIe11e1URo2AAAAAECz4noDm7t+5cuuL3/v+HK568l1Yxh8bAAAAACAZmR2rbaRu0LOcD11DLvyHU+tDGnssQEAAAAAmoWengfe5HryE46vfuz4quh66pkGDD48AAAAAEAe6e7ufl3JUzu6vprpenK+46mXYjT42AAAAAAAeTH4rq92dT11huPJha4nX0jQ4I9s12Y9fgAAAGDSsLxcnhrc4ftqtuPJp1I0+K9unvpP1nMBAAAAtHQOvltWB3OUvusplZnBf+0GwM56bgAAAICWIojU99XJrqcWub5am7mxH6U5nrw163kCAAAAmv4uf1BpT85yPellbdzDeQDksqznDQAAAGg6li+vbub48huOp653fPV85gZd1wPgy4Gs5xAAAABoCu6W0nQ89T127TueXJ9Dt/6GsFcOji+fyHo+AQAAgNxSWrGyg4vo8J153cDW8tPkau6X68sLXV8e4lQqm7J+QMi/X5v13AIAAAC5Ypm3chvXk6c7virl64Sv7nN9+feSJ49nwSCOPRjZd8dT14R9nud5b81mhgEAAICcUPK8Qv5O+vLBoKIf6waskDPCjMP11MWhNxQr1FbJzywAAACQM9yBgXc4fuXrrMKXhzt9x1OrXE/9uderHs2CQZHG5Mlzwr5vWbm6e/yzCgAAAOS0ol7Jl58aVOJLVGt/YoPvq2cdX93ILv0ef2DbOMbHXozwG47KF+J4JwAAAJDrCH4ussPpb5kZfU+uc33Vw3oBTrm6d19f3+vjHmfJl18J2x/eeMT9fgAAACBz2MA6/epwx1fdmd3re+oxx1N/KZXVYcuX3/vOpMfc68l9NTwQP0u6PwAAAEBq9PTf0xac9oOo+Qxc+56qcmoen/J7enr+NwMZ4rCbkyvS7BsAAACQCL2+2tPx5b8z0N9f4/pynuNXj+OrhsyLD4XeqMi5WfYVAAAAiAznwrN7Pf2c/UCE5zq+c0/Dta8DBxeGHEdP1n0FAAAAtOjpeeBNbr/8ruOplakZfU89w/f5vf3qc/z+vH4y11P9IcfzWNZ9BQAAAELR19f3FsevnsLGKx2jL19wfXUtG/3ugYGNm+EzOb7qCjs+qAECAADINXziDnLcPZm84ffkukBj31PH3FGpvM1oMhxf/jHsWHv71fuy7i8AAADwGjiKPqjA58vHUzjx9/C1wtL+/k2a+VO4njw77JhLnvxM1v0FAAAAXkVvf/UAx5d+kkbf8eXDjqd+1UonYddTR4Uev6dOyLq/AAAAQAAbY5177AhtreOp6/n0m3aefhqU+uVHwl93qIuz7i8AAIBJDgfZuZ48y/HVy8kYfrnW8eQyZ4U8qVQuv7dWq/2P0YL09a16V/gNgFyQdX8BAABMYnr96m6uJ70k3f2jnH6fYQPo+upc15cHcUlgo0XQyJJ4IOu+AgAAmIQsWbXqjeyGzkyrf0Rj+WAW+GEpYdeTn2BlPaMJcTy5OOyYmzHTAQAAQBOzzFu5jevJ3qyN/vgbArnB9ZQKygez/kB/5ZM9vv9uo4VSAd1ydZes+wsAAGCS4JTlkY6vnsvawEdv8l4OJHR89RPOVsjb9YHrqR+FHounjsq6vwAAAFqcWq32/xxPnp+9AU9kU/CQ68lO11c/d315KHs4ZtdqG2Uxz5zhoNHv32TRRwAAAJOESqXyBteXf8/eUKfXgowGT61wPXU1xxX0epUDnUpl01SuV8L3sTvp/gAAAJjMGv6evCVrg5yfJh90PTnf9eWFfB3irpAz4vQWcJXEeh2DEBsA+SR7ZuJ6NwAAAPBKpL/jq5saOkkPZglc63jyieyNdzLN8dXzjieXOp76g+vL7zj9lT04pz/qz8j11ZLQ7/cGNsfPFQAAQGyw0p7rSatB47/U8as78/M4Xz9rQ53+xkA+ycWJHF9dxtK9rJkQpoqf66uLNN7xWfzsAQAAxAa7uBs4ET/neurYkYp9ri+virCJ2NBSmwJPbnA8tdLx5RzHk7Ncr3pEb6XyAY6zGJqn4Goh/Abgp/jZAwAAiAWOhI9u5ORdzgq11ZjxBJpFgthg9nrVo51yde9BuWE5x/VVGhUG021BKWNV5fGVvMrlGn8HSWAAAACNc7eUpuOrZyOcbNezNO9ERXpKntpJu2aAJ5/uqVS2HHoGexa4JkBQPc+TlzieclxfrcnciGfQ+FtllbIIAACghXA8dU0EI/Sc46v9EhG7eWWDoRwuOjTWM9mFzvEGJU99y/XU5Y6vSpNlU1Dyq++P7QcAAABg8rGsXN1d+87dU48OBfqFhU/wri/nRdhoXKbznr6+vtezx8H11DH8t8H1RGIVCzNsnjpW+2MDAAAAQ9z0lSMH3OX9GgZZDox13z8RPf33tDmefET/tCu/0sgX4yuKZf3ygxxXUA90vNnx5FOZG/GGmrwKv2IAAACRWHzyaR+2Ozpqt/xoZljD83hvf3XrRqa75MtP1WMHNDYd6nkW34n7M/f6/hacquj46kyuKsiR+k3kAVBxzwcAAIBJwsKvHLnAFqLGm4Cl11w7vhH25AY23nG8d1B/X9vg9XNGgZEwXFK4VC5/rOTJ411PXeH6qsf15IuZG/xR5wSCQAAAACKwYO+9Hw82AELUut63Xa3n1jvGOYXLP8Yqfeurm3UNHgcrZiGDy/0NMhB8eSjn4AeVBTl9L2O9AsevfD3tuQAAANDkdJ955uuKW2+9YWgDwG3B7h+rle5yRjM2a5ZVKiLO9y9fXt0s0NjXNnrVU4ycwAGHfDURlEv25KxBvQL9MUVv8u9ZzwEAAIAm47aZMz8w3PgPtYWf2q/mLOsbYXRVVxJ9cPqr+2jHA3hyvVNW+xs5hjc3gYiRX/k+e044E8H15er4PQDyYRQGAgAAoMXiE36432gbgGAT8NmDas7d3nBj8/Okptf15Nn6VwHyqUaDEdMmSIMsl3dwPLUqzk1Ab796X9ZjAwAA0EQsOv74I8baAHDr/uJhNWfZiiEPwI+T6gcr2jmeXKht/DzVf0el8jajSXDLZXI85cbtBej15Q+yHhsAAIAmovt7P9htvA1A4AnYZ59a6Y4eNjTXJtmXpf39m0RJwXN8VWwGSVxW7Yv75D+s3Zz1+AAAADQR3WeeuTGn/020CZi3yy61uxbcvM6pVKYn2R+ujud68oUI9+C5rozHcsmup55JsqBQj++/O+txAgAAaCK6dtrp5Yk2AEGK4IwZtSWX/+khDm5Lsj+DSn3a8QAbSl7180YO7/zrAkNaQY5RmtOvvpr1eAEAADQRCz97cH+YDUDQTLN287HHPddzR8+Hk+yT68vfRzgFv9DTX0m0X7pXGq6n7IaMuq9u19gEXZf1mAEAADQR3cd959TQG4B6m7/nXutv+90lv0rq7p11+x1P3qK/CVCPlfrkNCNjSp7asVFJYfYcsBph+L+Rq5esWvXGrMcOAACgSZh9yCEbFbfZZp3uJqDY3l7r/upRjy789rc7kuhXyfMK0USCpM+nbyMDOB9/MO8/euXBQOPAUyfw83iDxVUXw/5tyZOfyWLcAAAAmpT5e+7VqbsBGGqWEI/YQpxsTZsWezpeqV9+JIoxdTy5uHtgYGMjRZb2DUxxPdnZ0KnfUy85/erw4c91PXW5hhcAqoAAAADC020YrytusYW2F+BVjegpS4hz506ZEqtHwC3Lb0Y0qLM5CC+N3wEbbceXTzbm8pdPsst/5LO5+FLo53jyhWbSRQAAAJADittvf3pDG4D/tvU2UVenaX7RmjbtDXH0zfXVLyMa1l8aCdKr1Hu4OFEjhr9u/Ae40NCY8RAamwvOokhyzAAAAFqMMw3jf4pTp1Zj2gQMeQWetIW4qlgoHNDIZiBIp/PU9RHd6t8zEsD15SEcdNiw8ffk4olSK11PXa3xTIgCAQAA0KOzrW1XW4hXVQeMq1lET9tEf7WEOKwoxLt0v01fX99bHE852kbWk+vcsjo4rt/C8nJ5quvLeY0a/sG+qYv5hD/RO91y9dMaG4oNpRUrEwnMBAAA0MLYQsxOYgMwoq2zhLjNFuKMohC7cAxCWC1911cPRPACvMRVBxuZF8/z3ur66lzXky82fupXLzm+/EbYd3d3d7/O9eVDGpue0xsZKwAAgEmINWXKprYQj6awCRieSfCcRVS0TPN02zR3H++6gOWCHV89r2945Wqnv7JHpOuHsjxSywCP3497oggWOZ66QMOzoNIKgAQAANBC2ERfSXMDMMp1wYs20SKL6Jyiae7Ttdlmb36NS5xd+/ou92ccv7pz2HlwPfmJOKv3cRzD8uX3vjPKN3HKK7fXeVevVzkwynsAAABMciyi/2S5CRjhIVhrC3GHJcSFnURHWu3t03vu9k6KZIR9+QQr9Y03dmeF2ipq0OEYLvkXXF9+p9Fv4nqyV+Od8xt9HwAAgEnI3Pb2d1pEA1kb//GuDeZ96EP3LTr+hNqSiy6u3dW1oOb0V8Iax6dZZGjkmHt9fwvHV5e5vloT26nfl8u5FHAc38T11YnhvQ1yQ9LVGwEAALQoc4k+ZBGtydrYh23FbbapLTzgwNotPziptuTSy2s98xbW3BXlMQyzep5d/EOR/XXDvzY+dz9XAJQX9vX1vT6u7+EODLxDL/5B/j6udwMAAJhk2ETfy9qwN9Q6Omrzd9211n3El2uLTzujdvuVV9fu6l78yiaAq+jFXq6XXfXl6i5JfA/XU1dobABWZ1UXAQAAQAtgE12cuSGPuXXNmFG76cDP1BZ978TakgsurN15w9ya497d+F2/J8+K89Q/WhaE3hVE9ZSk+gIAAKDFmW0YG1lCzM3aaKeyMXj/9rWFnz2otujY42q3nTurtvRv19RKS5aGMLSqu7e/unUa38P11RKNTcDjrGGQRr8AAAC0INd3dLzDJuqPYlQtoieshBQG0/QYLNx//9qib327duvPz6vdwRuDW24LsgpcTx3DpYDT+hauVz1C0zMBYSAAAADR6Wpv36Je/jfKJuA/nYXC11hpkCP4szbosTWil2yiqiXEHFuIWRbRMXahsLfd3t6W1G+N5YNZUEgjIPGpqPoDAAAAwPB6AasjGsw/c9Gh2UK8kY2kJcTPLSGW1PP8a63WLCEet4W4nQsi2USn2USHzC0Udrixre1Njf6c3H75XU0vwFn4CQMAAGgIVucLTr7RPAFX8iZg+PO6N930LRbR/jbRL2yiu1p1QzBic7DKFmKhJcSlRSF+yBUTOwuFrXt23HHC4kDBnA0MbOz68sHwGwD1TF/fKu0iTAAAAMCr6BTioMiGmuiPIzcBw2HpX5vo4zbRqbYQN6ZdmyDjjcGG+hXJPZYQ/7RM8zj2lsydMqWjZhivijNwfTVTKyPAk+fjZwwAAKBhLKIv20Ksj7gJuGK8TcBI5hFtFdQoGExJvMMmeiFrY516GxzzMkuIf1lCnNs1Y8a3l87+17OlpaWQKYHq5VK5/F789AEAADS+CTDN46JG+FtEv2skNdE2zRlBbQAhLrSFuNUS4vnMjXRGrWvbbWvzP7HnoODRSScPyiPPsWolZ/nIWIAF+NkDAACIBVuIH0U1XHySjVWvoL19uiXEYbYQ59lCdNbv2muTuc37wAcGRY84hfFn59UWn/iD/9OJNwAAAADGxBLipAaM1MmJFzYSYg9LiOMX7Lprcd5uuz9b3HrrzA1z1o3rPFhCVFjkySL6lV0ofKuTaM9ioWDipw4AACBxT0AQ+EZ0TJpTPbtW22j+XnttbZnmJ22iEzga3ya6eTIFHE7QONXTZd0Gm+hnHH/RaZo7ccZGmt8JAABAk2AJ8ZOIBmedTfQ5Iyeqh13t7TtyfAGL+9SN4IrIAY8t1iyiBy0h5ttCXMabpyBLoaNjStbfDQAAQMbYRGdFNCwvstCQkVNmT5/+eg48ZEEfi2imJcTVFlHPpMxIGK0RPcnBmLwxCOanUDhwbnv71JHpiwAAAFoYm+jsyOp5hcI2RhPBwXQcVMdiPrYQv8Y1wugbA0uI3wdxBm1tu1rTpr0t6+8GAAAgIYK742gnSWVNmbJpM30Ylje2iP4vuMrI+iTeZFcJnMYZXLeY5gzO5Mj6WwIAAIiBulGM4glYYk2b9oZm+AjFQuGjlhBe1ga1VTITON6ifr0yeI2A+AIAAGg++P43CBaLZgyuNHIMF/WpixAhODD5zcF9NtH1lmmeXhTiUze2tb076+8PAABgAljy1yb6R6RNgGkel8cJ5pQ4Swg/xpPv0yyPrPk3tw1lKXAwIgdRZn2Cz+AKwbILhcvsQuE7N7znPZtl/bsAAAAwSgS9RTQvwiK/Zq4QH8vZZuYEm+jlmIzYGvaQLNhii8B4ac0R0QvzC4VNhgcjctR9UGqZ6Bj2TgTpekTVyeKlsIie7RSikzNR+Ppg+PwAAADICI78rovL6C7qDw8ZyCzpam/fop7mFo+xEuLfXORo+DvmFgo7aNZWCKWiyBUW+dl2oXAou9FtIf5sC3G7RfRES28IeC4HNRz+wGJG/A0T+4EAAAAYG7u9vY1L3UZYyG/SqR4YNyxSZBM9FZNhWmaZ5m5jvmuwBHLYeanEIZXMwkev0TcQ4tmsDXgijeghS4g5wVhNczfURAAAgJTggj313HC9TQDRzLQ/Emci1F3pkSoejmir2TXN1yHjvXMu0Yc0N0c7JzX++W1t7SPkkhfZQjyWuRGPsQXxFxxLQHQaXzd1d3RsnNR8AgDApKdomvtYQqzVNHRrOeUurcmzTHPL+kk4DiNzAxvT0O8W4jaNefmNkTIchc/G0iY6lt9vE3VZQtybtTGPpQ3Gd/BVzyze/HC2R9rzCwAALU1RiB9GMKQD/9lkk7cm3TdbiH2jeClGMSb326b5We33m+ZRGu94KMvrkeHwt2GPhFUofDUwoELMiXLlk6tG9JItxEKL6BTO/sjLXAMAQFNjE/0xwoJ8SZJ9qkfQa3knxmizo0ahc9Cezh18UYhdjBzDBZZs09yd0zr5KiHwcBA9k7lxjypXzamXQhydh+BUAABoSvi+VdfNXo/s/ngSfalHxzdqIB6xhDi40f6wEJLGpuhso8ngK5GiEH9pevnkwSwDvi7YDd4BAADQvGvXPQ1aRCvjrE0/d8qUDlsIJwbj/8+4VOo4n1/DCN1lNAkWkQgUFAdd69kb8Hg3Aw+xoJNFtP9EwZ4AAAAGjd2hERbcC+KYPPYmNFrBzxLiOS5oE3v54ZDXAOwVybs8Lhd4CpQLJ0/55NUcA8G/izg3qwAA0HLoSuGyuh0HZTXyzqIQ3230vt8SosTlgI0EsImuC90X0/yMkUM4DoLTH1tWVyDcb+Q59g5xQCg8AwAAMAJOt7KJ+jUX1tu44FCkIkWDRqmRRX1DoBGQYNVCW4hvaPRplpGzwD+L6KcZGP57LCG+bRP9NY+piYH6ItElnNIa5bcLAAAtSV0ERysorCjEl3TeMVuIN1pC/KuhhZzoSdaaNxJmjhCk0afFRg5gZb16JsUjmRjZEVkigZiREEfw/24R3Z2nuggWkQw2oh0dm2f3xQAAICdYRL/SXPDv57S5MM/me3IdkZ0xmsNFd4yUCErhhjMmL3YbxuvS6teofR0sRNSXqVGdIAODtQqCAEsuGCTE/JxUUVxfL9x0CKSJAQCT+iqANe41NwETpsGx0W60hC/r5KetDGcTXR+6j4XCNmn27ZU+trV90BKiOxHjSLRc4/us5asH7fRP09ydpYBtITr5vj4HZY7PTXOTCQAAucESYg8tVy3RC5xeNubziD7cUKQ/0UudRN80MqBumML283Np9m2eaRa4nHFCufy38zVLp2l+UWMDsKTRMfEJPBAtIjqHnxeTKFSUtp4lljm4E/oCAIBJhS3EVZonp9+O9pwi0ScaPNU9xhsSIyOCYjzh+3pGal4aopkJBfgFhn/oXTbRNRoboLPiHuv8qVPf3inEQTbRxSxFncVmgHUvLCFO4sqNcY8PAAByB8usagkEEb3EQXOjlPFtRHDGKRYKZg7y58POwT+S7AufRFkC1yJ6IHYjJ8QSrsEwijpj6E1GZ1vbrkbCsGu+Xh2R4wfWpLoZIHqJr6GKRNsnPU4AAMgULff3oBG5cOhvOTugQffttWGDC5MmtCAQ0dKk+sDG1RbCTcPwD1EsFA7QeNajsw1jIyNljQP+ndVrAzyf6mZAiAWdRPshlRAA0JJwjn2QKhXWmBC9yF4ALjrTSLoXbyTydO9a15sPc0K8P+53F4V4VyDdG3P6nCWEx1Hv4xkwzXoIfzSyrmtRKBzIJ3SL6Om0NgJBwCzRCZzemuX4AQAgdthI6CyIRSFuaWBB5WC27+TtM3J0ekhjsDauUzAbZpax5RiImI3WfawTMFHKIv93rXfnSAlxaDNgC/GXtDwDnD1gE52KOAEAQMvAhsgSojfxRZRjBQqFQ40cwiI2ocfR3t7W6PusQuEDHIwX8/w+yYGDYU+qWsWQhFiddnpmWHi8vInlugBpZBTUZYcv5AyNrMcOAAANYxF9IeFF83GWZs3rp6pH3IcaSyP1Efj0yNHusab1DRb/maV7MrWE+L3GO64zmqUSItHMRvUows47Z8awEmLW4wYAgMjUtfuXJ2L8iVZmJaATlqIQXws7nqJp7hPJy1IofDVm+d71fIc/nj7DBLEfT4Te9MRciTGl3/PHOWsj8bLIRC9zfASX3c563AAAEAkdQRiNxbHaDK5SnbFzzrrWs4XYziJqJG5itHZrI54InbgPDvy0pk17m9Gk1IsmHZO0hDKnLHKAIuoOAACaDo7K160WGHITwFoDC2yin3EgGesPGDmjHlAWdqH/skbRnpnBCTG++byPT+ONpqZZQswNPV4h/mW0CF3t7TuysmKi9QmI+HrnLpvo01mPFwAAQmMTHZvkKWmYER1g96xF9H2ODci6hrtVKOylscAfO9Hz7ELhI6FTC8O11XzP373ppm9pdKy8AdMJlisSfd5oTRGsUzmtM+Hfubxx6lTECAAA8g8bmDRzrEcYuAWWaZ7OgjhpV2wLDHbYvprmD8Z6DkfKs6GOK8jPEmIDi+DMnTKlI66xsuStxmbnmVbOfw/qEgxeh8SbkfHqb7i20zRPa+V5BAC0CDbRRRlsAEYums9bREWL6JS5RB9Kugzv3EJhBw2jeOqo8ybEvjFr2TtcZCnusVpEd2v04c/GJMEyzd14s5VQ4SVujwYZCtOmvSHrsQIAwKjMnTLlvfWTZy1HjaV6O/nKoLNQ2DruT2e1t0/X6MuPRir56RZWGnfzwx4You8lIbtbvwMP3xfT/KTR4nS1t28R1F/gAL6ErwSCRlS1hDgMEsMAgFxiCXFTDoz+eIuoqnsq9mVVuDQNo0V04qv0E4geitH4/y0OoaGxsIh+F7ovQtybJ7nmuOC0SZvoKxbRn7KqPlj/DS9mQais5wMAAJJPCUw2fuBGu1D4VlRRFq5Pr/G+78zt6JjC4jixGX4hPC6rnOTP8D+bbPJWzeqPZxstwI1tbe/mE7ctxB8CXf/sf6/D23r2POQxMwYAMEkJ6tEL8VwOFkh9Y0p0t0V0PmcXhD3BFoX4VOjnFwqXxqbfzyp+RGelcS9sCXG8xoZkQ7MK2/A3Z40EW4gf14P7krrTj68RPRXIOGecDQMAAAGBilrWC2PjC+v9QaU909x9vM0Ap7ql3TeLyE5LNKaujKej8bCgmf4ZsAxy3Wt1lUX0cOa/u+itbBHtn/V8AgAmOZYQB2ssXFwg5SYuSJODRXQsg/tgcAdO9PGRAXb1qnzp9GWwaM8xaX5Lli/W7OfhRo7hDU2QuTGYy7+4KU75er+R6+e2t0/Nep4BAJOUoOSqjiaAac7gv+OcdVb8s4Q4s64492jmC+qIFpwSiS7pJNqTNwOWaR6XynuFuJrvpNP+lmxQNPr5WByBlXHD1ySsrmcRXW4RPZD1byiF3+iLHIeBtEEAQCZwvXWNBev7Yz2HTzP1QKwLLCFui1ket9H2aNLlkOvR5vsaGcCBkZon5FlGjoSpAqGewaI+4QMYW6ixmiB7rbL+FgCASYZtmp/VWKhsHQU2Tr2rl26dk+ergwbbetaej0PCNyp1ZcLQ/eW8eCND6iWTD2FvSbMGosbd6rocl3EmR5bfBgAwieAFh6uchVqoiF6IKnfKbnjeEBSF+KEthMVKgFkvug03on5WMTQypC5NHDpjgTdjWfSTtQ/4GsYSYr5OnYKU2n020V/rFQXDqyjyvxuiv9Y3gXH15R7OWMniGwEAJiH1IKtwBqRQ2Cs2jXbOzSc6KxBMCbsJydGpn42vkTGsKKjT9zSNCxt9m+iE4EooXiPZWCNSFtGVVqHw1eGBeHOF+Jjms656RVmTqBhzP2dbU6Zsmta3AgBMUjiYL/QGgOj8xO6CBwMLL2WFusyNxNitzPoDRg7g+glaSndEKmnlv+s7Ot7BsrtBeej8RO6XLSF+XxTiS3OEoLH6bgtxq8Yz180j2uo1JaeJqs2cTQIAmGSwQdPYACxNo098MqufHufnIaBw6I62a7PN3mzkBIvoy5pjOArGNe8AACAASURBVD6xbJJC4cBAa39QtTHrb8Upq3PYeIbVYeDsA813XD3WXNhEp8Ua20B0fRaZJQCASUD9JBkuHZDopbTVzKxp094WBI0R/T2LUsbBnbVp/jFJDf8o2EK4GkbkyTgDFfk300m0X93oP5upwSdaYxHdYgtxRlGIXXSLLLFXRGsu2bNRKGwz3jPnmWahHuS4ITaNi0lQuAkAkAEW0Q2hF6S2tg9m9ZF48xGU5eWrAqIH0zY0thDXchxE1pXedE+sthDnxfLeQuEjNtHFWWs/8NVHIPpkmp9pNHLeNs2jtN5P9FeNZ3Ocy4o4vVB5iD0BALQQ9ej8sAvgsUYOCE5ugwbpF6nHDQwu6t/ISlCnfuINvXEpFgpmQ8F8QpzMBY0yNPrr6voSp3YKsV1c88hXOpqiQ+uKbW3b6ga8BumwLPwTx0aAqK9ItH1ccwAAmOSwEInGAnS5kTPqi+yVGRgmPgnPYpdvWmMNNj16ffxLFE9LENTG0ejZZWisfuUuP6HrF4vop5rG92+R32WaW8aVLcCbCd5UtGI5ZwBAygT37CFTtVhVL08fiCO7NSO4429c9U+Iy3RPh1EIhJV0qv5p1KTnk6UlxG9iq4aoa9iEuDd4f6Gwd9KxJuwV0QpaJHp5ZOR/1OBNS4hHYtoI2Cg1DABoGE6XCrnwrMvLPWTguSB6KFPj/9r673OKRJ9IYryBuqJeYJk10TOLQryLMwQsIUoZ5uWfzwF8acZW2ETXaG5OfhOrGqIQl8U0h4/Gpc8BAJiksHsz9KJTKHwky76yoWAXaI5yzV9rMIh6OoU4KE6jxgZdqx+muftYz2LhG86s4MyODIx+P7vfueKfkQEsiKTZ3yd5oxR3P4I6CDEEVHKmCv97yDo4FQDQpNim+QONRecbWfWTc6LZ9Zm1gddoy3ihb/S+Vvfu3xJiychnzJ869e182o8rMl17HoT4sdXePt3IEJaz1hbsMc0fJNUfVvzj7JI45tgi+g9/46T6CgBoUSwh9sh7RblO09xJS/0uT41oRSfRkZxDH2XsFtE8nfdxnv7wqwN2Oaddg6F+p3+hThxC0lhCnKv53applOztNM0vxhJ7QdSfRiwKAKCFqN9Lhl3Y/512/yyiE5OKSA/u1U1zRr16YbIphWxQiI7R2QhYprmb5nvcJYMnXa66Nz9lo/94sNkwzd3y5pKuf2Ot31CR6PNp9a9rs83eo33NM/o3eI43FGn1GwDQAlhET4RcZJal1ScOOAzuqpM1Wt6IlMIvsJ59XEpuY2wEVFGIr4XZCNhCLNR4Lo9nrk30VGqGn8s9E13BwWi6SnxpwZsRncJX9XZr2puYujLhjxqVwA5+u0S/yOv3AADkDJvozpALzOo0FkauCcBphykYsD+OOh+Fwja2EBckaUwtIXyb6HMxXc2k1oKTNNH1HOiYhou8UThuRfO7rM1ScIcVN4PfRuPfyeY036zGAQBoEnRO2uNVVotRnCgVyVlLiK+P1xfW0Q8EaYj6EzSoS3nMr5mHrDUORjaiFXxVwu5qo0ngwNEI9+sXZN1vVipkz0oM3821iETW4wEA5BgtZbRRjFWeUvwsjb/nmu4a8sN7Bwp1CV0P8J390MmTPQOZG/zBb/1kUA2xvX1HowlhNUTN8T6Up2h6S4gjGg3g5NoZHESb9VgAADlFszBK7KmAfNKOIyWqk+hmjf//o1FS9DiyPaj4lkxg4jq+lrALhUrWLn7bND/LcRFGkxKhcFItjwF0HNnPdQAa+qZCPM9XNlmPBQCQQ3SizTmdKs53s8xqowtc3XCeahF9P4nqbqMxd8qUDpvoIi1Z2Ty3QWW+ma0gMRu4/jWVIjnd0sgpXPmQ6zPEoFZ5UtZjAQDkjLkdHVM0DMUVcb23aJr71N3MjSxsj/Jz+Hk6QkHsXo1jDHwnbgnx81Sj7+Mz+i9bQvyTrzfylrrXCNreJKKXOguFrY2cYxOdEIPn6YJW+tYAgDju34VYG8pwEt0Qx4RzcF2jixmXxx2qyHd9R8c7NFKo1vMpMc4fDkdcW0SnWEQPZ27YJ5o3IfiK4eRmCujTKboTYU5+bDQJnW1tu8bwG/tLM1/vAABiJuyiMprUrA6c/153nTdiwDaw0tzwRcwm+orGM+4wktQvEOKktDIZNO/2r+kk2rNVT4BBpT99T4zbbMaQI/u55kSD/4bmsDxy1mMBAOSA0PfwRCrqO+YXCptYQnQ3ZMx4gTfNz4x8ti3EjRqL30+MdFK5ToirBGwD88V34bPYOBotTD2LRKtWBHu9mjXDgX9flhD/avC3sShPWQ8AgIwIbZiJnokqx6pdjOW1C3YviwSNFiRlEb2o8ZydjZSoawnMTDtGIKhKSHRks51uo8KbrQgG8GyjiamrHJ7dSGoql4NuxasgAEBCgVO6CnAW0f68cWjQqF3Lp55Rny/EERrPua/RCn1RsIU4vFGZ1xBttUV0eVbldrNMlbOJXtDcIN09e/r01xstQFD7QWMDPMomwONA4KzHAQDICJvokiTUAFltL2yA4RiLE59uZo1ntC2iYuhnEv3CSPGEViwUDgjU/pI1/EFwJhd2MiYZbMQ1pKyHflNrW00cp0j0iUa8TNgEADCJsYjOCbtYhDlh1t2TZzVk1IR4zhLi4AkDv3TUA9vaPhjrxI0xdu63LYSTtOEfvlHi0/9k03+3iH4VYa5i1bLIC8E1mxD3YBMAANDCJvpe6IWjUNh7vGfxFYFF9LeGjBqR6hLifRP2W4gzdE45Sf4s2EthFQoH8r1qWob/NWMkenC0IMlWhK+WItx/O63i+h8NTottqJAW0XJrypRNsx4HACBFdNLo2MiN9ZyiEO/i6OIGjf+iMItQPfJbamwAzkzEDW0YGwX55wkWDYpQEvaKVo7wZs+PJcTjmr+rF8LWf2hmAk2MxopJLeN/x1mPAwCQEnahcGjYBaJI9PnRnmGZ5pa2EOUGDdivWSsgTJ91S+bGrfbGhp8j7evCOrUctnts09zdaDECLYkIBq4oxHeNSQLrUdhCWA38du7gDJasxwEASAEuFqKxkH5p5N8XhdiloZx3opcsIY7W6bNN9A+N598Vp6ufC8fwlUIOjPxEbR1LFbdSOqAtxHkR5sFqVQGkCTZKVzVSoVI34wcA0IR0Eu0XenEwzaNG2TysbuTe2iL6sPZdp46UMNGxccxTvSxwZnf8kRvRXXahsI3R5LCSIUs5a47/Mbu9vc2YhASlrBvYBPAmO4u0WQBA+gurtjG1iE6MsCAPb65OWmGUrAXWIGCxoEbmxxZiX910s1iaab5gEV2plekwTllYTss0mjvATdvLNNlL4fJVFev/N7AJuCjrMQAAclISmDMGgsA3IS5syCARFaOkrdWzDMIXRCG6OOq82EQft4kWp274/9v3nwVjFmLnuNIKLSGuHktUKc/u7Cgy0hbRb7PueytsAnijn/UYAAAJUTcw4RYE0zzVJrquQcN2ES9KUfqqWfiHT4Db6b6jHtMwPzPDPzhHDw33XARGkOj7jVy3DHv2Cqu9fbrR2vn+Jdxhx7YJWG+b5mcz/AkAAJLCInp/aINKpBowPutYG7+hvmrcwXPJYJ1nc6aALcTsRvTV42qcWjhaH7va27ewiW6OYRPA8rnfMHJOIKOsb/yfa4WYh0Q2AUR/jfibWZ1mHQ0AQJp66kkbNCGeb1SkJqgroPHO0TIWRoODxCwhLm1EtngcQ/uUrVnDnTcu40WtB6JDQpzUiAb8sO9yaV7FcYpE20f0eByedd9zfp3yz4i/l/tQPAiAFqMoxLREjT/RA1ah8IFG+6lzH88BYxO5gFksh+/Zg81J/GN+IlAqJDpbc8Pwclj3PAvbxBKcSLR4wRZbbGbkiLqoVJQKkn/Iuu9NkSJIdH3E38uCqNd3AID86ognswEgWj6/ra09hj7urvnuMyYIJPy+tppcuPaYTXQq39/PI9pKu1KdplZ9cKIzzdO10iJHb/flpUhOXV0xfJGn/7Zls4V4Y9b9bwa6Ozo2Zk9TlN+KRfTTrPsPAIgJLpKT0Aags9EUvFf6qKds9uxo1fGCvOjBIMLIRVPGWRSftoT4ydB460WBbtJ8zj2s4hZlfjhwMeKJefgYXuT5MTKGN0FR5p83XFn3vZlgD1iU2gEWx8ggKBCA1qBYKHw0AeP/57gU6Dj4SCswb5SyvywdbBH1JDDO1RbR+fMLhU1GvO/r2s9qNEZi2rS3WUR/b3gzI8S5WSnnsdS0bhAm//8ne75/VFiHwxLiXu3fCdGTHJCadf8BADEo3MVpFOM2IDZRV+h3E63hYjFDfxu44ROI7K+73C9jgZqR/Z3b0TGFF0jNZ94Y13zVaxQ81+AYr03bnc6lpiP2+7w0+9mSV4D6v9eaRbS0lWSmAZiUREm1GuskVhTih5mJFA0uSpfz3/EVgC3ELK4zEKfhrysfzubAyXHmc7bWM4leiPs0xWlwrLTY4PdcklZ5WN40RTmJ8jVL2AJSYOyYmE6ib0baJBOdhXkFoIlhdb+GDSNHrwtxWAJ90ykvvL5LiPexclk9Cj82w19fHK+dqKSsbqpife5ONZIL9PpTg+P257a3T02if8P7aQtxe4R5uz9v2Qt5hTfEXe3tO9pEh7AWB3uvArGrwbiRyFLTlhBr8xI8CgCIAEf1NmQkiJ5m2dy4J98yzU/qGoSEyvNaHCgZqhY70f2afe5POg/fFuI7jWQJsPQy5+Qn0Te+KooiTsMBixz4mESfmhEu38uqlxycFyhGEl1kCTE3UH2MQS9igubCCwNAk2IJ8edGTgAcYBd3n+oR+3clvHBNZGRu4SuI0POof9peP1eIj8U9d2NepRA9FHk+iJ7iYNEE+nV6hN/cBkuII4xJBt+3s1qlVSgcyEJQrHnAqpBatTESasWYr/4AACnBbt6GFoDBXPer7ELhI3EGsmW2oBEtZ1dpYiWV//ueS4wU4YDFSK72/7bVRSE+FVd/LCEOjlhN8rzJ4K6v/xuYFQSxcgaLpqZEym01sgIAaEI4bz7GhWCZJcS32SUZtT8cfW4JsSrtRcwiGug0zS/qZjAEioJC3Kf1LiFWxaWRoBvwZRNdEXmeiF7mVL2YUjujKDDe2Ao16tllzhLcFtEXAiEnIa7mqPpAOjp7Yx7t348Qc7KeVwCAplsxkeI3RM9wyWCO7k7DLdxwDIMQJ0etHmcT/THtnP9GsYhOaeC7rxurWFGod5vmlizVHOE73Z3FpikWzwun2hKdUDf0PbFUdcxhK8awOQQAtIIM8FARICF+bRGJMP3hYiO8eUhjsaoX/7mskUhyW4h9IwjXXG3kAD59NuBWjrQJuLGt7d1Rrpw4q2O81Mu8GXr+XdlC3JpEnYk8N4voQQ6GzfpbAABCwBXzUlkciF5m1/NEG4GG3NM6C5UQcyZK6Qsppap1VcEBWyNVA7OEgxCjpkzWU8C+GPZdLHNsC3FHBKOyJoksk0YKFVmFwl62af4gCPwkujMG4aXWaUQXZf2NAAAhYBnblBeHF7gC32iuXM4njhgUpvN+TovaP44fB5/kI7xfK7gwDfhk3UD65Low5Xfrteivi/SOQuFbRgZwLEgwN3xPT/RT3jRmEZuS47aexZssIbqDjTvRqXahcGgclT8BACkQsepaw41PwhbRMUOlResV4HoSfN8DlhBHxxVAxguddj+IrjdyCl+DWEKUIs7tmom0+C0hLo347N+lMf564OnOrIhnE13M7vuYg2ObrgXploP/bm6r15iYZZnmcbyBDgIYI8bMAAByQFCxLmbFvAgLfB+nlvEpL6F3rLaJzu7abLM3x1pARXfeWGu9vb3NyDF8d8vyvxG/44tj6UE0ENS5IAmBGU6zK5rmPkHgJxs2ohWNqOE1bRu8llMsp2wRXcmyvrZpHtVJtCcHaiYtUAUAyJBAOUzHkCa7GMWq2V8PzJs9d8qUjjjnrF7md36E/hxtNAG8UYoyvvo3fGakYiLHmETUmF8xWknnKHEabNBsIX5kCfHPRksmN1uriwTdyga+vhE7vLOtbVfexLZCOiUAICLsztNYSH7JQXN8mo5UPjTddmtS95BcZ6DV86MDd3jUqyGih4ZqB7CUcyQJYqL7h1d0DAtrT9QVD4N0u/rJPtmYkjw0oifr12dchGoWCwixkBCXh07kBwIAaH50ascPz+/lkwO77S0h/tWIxnwCC+FDvPglVcu+XmhIV1f9sShaCFnD97sW0X+ifAeLSNaVEfXv0ImeCVN3gD0VfJIdZuz7W9rYD9a56OZql1zMh/898jzFebUFAJgksBHXEmMZ4/6a0/qC4KAMYwnq+fy/ZndvogZRiN4IxvALRhOLRGmXNm7kOxKt4bv5kf3gDR17n4pCfK0eTLisRe/sWVtBWkQ3BBLApnkUFzzCSR4AECu8sIRemIiqoe6OByOEV6a6aBItsojen/TPwyL6vwj9+4vRGkqRcxM3/hwnYJpH8TvZ4LErn0+69dS7x3NgnOMb66CuQZXHNtxlzzoJWX9vAMAkwBLiTI3F+VKtimWDRUzKCS+iDybp7h+ObZq7a584ie6PI4gtD9RT5LoT3gDwJuPPrBKYiDR1Fm1Q8+KuepXIk4MqfhxdX099BQCATGD1siT1vTl9i090ukVyQhj+NVxjIC23aD01TivokQ3YaK7sZobnW+c3M5lasGHh7AKi6y2ic/jah8v2wtADAHKH3dGxucYpa13UkywXvOGTcIyL7UtWW9vBRopYRH/T7meLSqGyhDHrNmRtcDNtXOSKqKceeHgCa//nSdoZAADGxRLiJI1F71bd6QwK+ghxbUIL8FMc/Z3GJ7aEOCxCH8utfJcbFLyZHLn064LMAqJrWOK2WCgcELemBAAApI6OK5c3C1rPFuJwTn1LeHF+1i4UPpLcDNVL1g6WCdbKRphL9CGjxWEZ2GauWz/adwtqRNRP9RyAiPQ6AEDLMY9oK50gKzaEGlry/0pt4SZ6JiljW09/uz1Cv84wWpjgCkCIgzkGI+kgzwR/Ny9xYF5QrpfoWNb/7+7o2DjruQUAgMThSnwaC6Yb8pmHpHDqH20xf8pqb58e9xzVDZxuX25utaAvrtgY1Lcf1HnoaTqhnUGt+1ed7GHsAQCTWfxHp5zpj8d7HivcRS7xGlOziAY45iCuOeK7Xu00NKKnWuF++Ma2tncPO+Eva6Z0vHp2SMkmuoSzT3hj2GobMgAAiIwtxL5apUDHcf/zqT9HAi23xlGalPXno4yp0zS/aDQhzXzCZx2IQEiHK9gVCnu3cuAlAAA0jC2EFXqRJVo82jO4ipgtRGfWBmCU/l6c0b3/ZUaTECjssRgNn/CJljfLCZ9lpi0imwtR2USftqZM2TTruQQAgKbBLhS20TnhWUTHjBrhz3XtE1zsOwd13qPFE5jmZ6LOD1c71DZMQlS4Ap2RU7ieuyXEHhbRTy0hltRrJmRu0Cf43XFxqTsCsSchjuCg1aznEQAAmhpbiD+EXoiJXhgu/lMU4l1BPnQakf3t7VP5/tYieiDCMx4dq2jReHDlugj3/i8lVXK4EYL5IzomKOJD9EzWBj3MN7eEmD/kymfZ4aznEAAAWoZAmId1ycOfwv409Ldc0z1uOd+xGmv7D72XpVQ1AxYH+y7Ev3XmhqsZRrn3t4hONHJk8DnSPeKmKW2DXx2KyucCOByYmvUcAgBAyxLcneoZ0Z3rBWAuTOuemDUERva7KMQ0rZLF/237hq5XQLQ4Ql/nplGEaMzaBERfqNeFH8i5sX/BIrrFFuI8jj2AZC4AAKRIUMee6GEN41ZigZ2UhV7u42uG0fpfLBQ+ahG9qGWgifrYuCdU4veeNKv81VM3d2aRIc520K5KmG57jNNCLaLvW0Qf5sDKtOYJAADACOr3weGN52CN8jSNzHoOVBvvw9lCfEP3uZZpHjfuM4k+F+He/+U0pH45yr0urnQZp7vlwLCPPsdED/PvxSKaCXc+AADkLApcq3ALK6elbUSEODfMWCyiKzWN08qxhGCCjIgIAXJ8sk3kOxnGRmxAORAuz/n49c3I7KH7+6yuQQAAAEwAG6ysjcYE7fawbuIgh12IezU3F4eNfA6n7UUpacsn3TgNHosOsRY915APihtl/y1e24gUB4RahcJXu9rbt4hr7AAAABIkMHTRAuhSadw3FhVKSskweAdRz8hnWEL8U7uvRCsbvffnUz5XMLSE+LklRG9eDT6ni3L+ve63AQAAkBOCvOqsDcrYbT2nF0YalxA36ryrSLT90N8WhfhhBOO/JmrpYS4py9Hveb3LrweHzuY4EZzwAQCgBQiCyFJwK7MSno6+wCuN6KyoY+P7ex1Fu6EYg7lCfCyKEl5RiO/q5uUHlecGxW1Sj6mYYC6e434NBe3hDh8AAFoMm+iihA3JBovot4E+u/7f3tRolTYtVUIOgmxvb4sikmMR/T2U3C6LJfGc6wRcptCK06bVbjro4Nqt5/ysdtv558+E6A4AALQw7MpN+OR5T/00/ZsIBvWBOEr3dprmTprvldrjJFrOLvyxAhK5AqBN9A+L6OmsDf0rraOjtvBT+9UWn3ZGbem119WcPr/m+mqoXdTovAMAAMgxFtENCRqZ2RwMFykvn+u1m+ZucY3TFsJNcJzPFtvatn3VvE6ZsilLFddL0L6UubGvt673b1/r/trRtdsvu6JW6nGHG/xXNcdTblxzDwAAIGd0CnFQEkaGT7kW0ZeHIvGj3KV3En0zzrHaQpycyFiF2FAk+vzw+/y6Al9ecvNXD7/Hdzy1aiyj/+oNgFzvDgy8I85vAAAAIAfc2Nb2poS04Rdyzjq/g6v02URPRdhA/C7u8XKZ2CQMbFGIK4MMCqIVOTD2g22wL7O4Wh5LOw+fB9eXfw+zAQg2Ab7aL+7vAAAAIGMi6tqPZ7TXsCEcChyb29Exhe//tZ8jxG0cKJfQmOOtfpcT1349Pe/PnI8/UcxEyVPf0tgA/CyJ7wAAACAjbNOcERjs+AzQ3RbR+4eeH1QGJFoa4Vn3Ldhii82SGncUUZ/ctvopn+MkdKL1e/vV+8JuAFxPWkl9CwAAACnDudyWEN0xGqPL2OAPPZ+NkS3EtRE2ES9yFbtJLHY0/vwI8Xy9kM4x80yzEHUOarXa/zi+ei6cB0A+HO8XAAAAkBlRIvLHOIFycZzDR3n+ryMYtw3svk567PyOrA255hxXLSEu5Lv8OK9FHE8uDusFKHle5M0GAACAnGB3dGweS84/0Z0c8T7y+RbROZFOt6Z5ehrjLxJ9InOjPv68skpipyXEt/lbJTUPri9/E3YD0NtfPSCpfgAAAEgBds036vqvn9QvHO00yhK4EZ97VVo/gLlEH8rcyL92Th+xiC7nGgDDr1KSpOTLr2gEAv4kjT4BAABIiCiFbUa0x4qFwqinQc75j5L3bhHdMjJNLUmKCekeNOLa7zaM1xkpUyqX3xt6A+Cp69PuHwAAgJiYO2XKeyMV4fmvwVpsEYnRnm2b5mejCP1YQvhFId6VRsZDPfivnJnBN80NXdtuK7kfLMZjZEw9EPDZcJsAeU/W/QUAABCBnh13/F9LiFIDBuzX/IzRnm0TfZyj9yM889GiENOS+qDz29rabaJTOT0xK6Nf3HLLWvchh9aWXHBhrXTHXa/I6zpleWRPT8+o85kmjidvCesF6PH9d2fdXwAAAJrYRD9roBTsYWM9t0i0fRSVP5amtQuFj8T9If+zySZvtU3zKK4emJUMb9e22w7q7F9xZc3p7RvvVP2Q68mzli+/951GRjie/HXoa4D+6j5Z9RMAAEAEota0D9zlpjljrOdy4Rs+xWtvKojWdBLtF2tgo2nuxloEvGHJxOi/d/qg0b/y6pHV9MIE2D3r+vLC0oqVHUbKuH7lyxp9nZl2/wAAAESEJWFtovsjGLV513d0jFkEprNQ2DrKc4OiOUJ8LeZ7/XsyMfozZrxi9N0VZS2jP0Zb63jqmp7+yoeNfAYCXpNWvwAAADR6Miaap23ciK5hpcDxggktogejGE2uRtfImFgiuJ7JsCwLoz/vgx+sLfreibWl115Xc/orcRj9sVpPGnECs2u1jVxPvhiqT55akWRfAAAAxIRF9NMIBvo/4z2T3f6Ri+kQXRxlHLMNYyOb6NM20XVx1i4IbfR32ql2yw9Oqi29fg7r4idp9EeLE3iQ4wSW9vdvYiSE48vlIa8qXu7u7k49XREAAIAGVqGwly3EOk1j99h4RXjqxYMejmj8/6pTrCYYA5Fgj0FC5YrHbcWOjmcWHXtcbem/rp/Y6HvyTtdTjyW5EXB89bzrqYt7+6tbx/0PwfHUP8P2o6dS2TLu9wMAAIgJNpxszLXV/QqFAyfQEHgoovG/PqzQDQsC2USHWELM5z6laviJnrWI/s7z0Nu74ujQBtqrHtHT88CbuMSu40s/0Y2AJ9c7npzrlKt712q1Ma9pdGAPQ+j3l9X+cbwTAABAzLA8ryXEbbrGzyL65bipfpobimHPnRdG5Y/LCNtEF1lET6Rp9C2ip1mGmLMShuscOL78aehT8bCgPTbKbJwdX85xPLkhWa+ALDueOoE3H438ZlxfHhr+vZXvN/IuAAAACcGpcBGM4NKxqszNLRR2iGz8hbita7PN3jxWX/mdWZz26yWH53QSHTlW/1xf/i20Ia5UNh31GeXyDo6vLgsdZBe1eepRx5OzllUqo6o0TsQyr7qdxqbj0ijvAAAAkCAW0YkR3N5PjlVxjuVqLSEej2hkl7Ioz2jPnTtlSoclxLlcACfF0/76ICOC6Cvdm276lonm0vHUHeEMonpuomct7RuYwm52x5dPJOsRUC+7vpqtm0ZYqVTewCmIId/RrfNsAAAACVM0zX10xX741N0pxEHjBBE+G/Hk3ztS358DALnojS3E7IiiRNEa0YpAK0CzrK7jyUfCnb5lb9hn9vX1vaXkyeMdT1UT9QgMtpvdJ0/enAAAIABJREFUsjqY0/zC9M31ZSXcc+WDOvMIAAAgQbra27eI4qa3iP5vtOdZQhwcUds/MP43trW9ohnPYkIW0TE2UX9aRr8eR3AZqwNGmU/P896q4RL/d5QiPL1e5UDXk/NT2Ag8EHgfxrimGML11Q1hn3lHpfK2KPMKAAAgRtjNbhH1xXXvbwvxnaga+sONf5cQ77OJroi6kYjQVltEf+NgPtYNaGRO+e5ew8D+opF3LeuXH3Q9dXVYF3zk6wFPvcTXA6V+OWr9BdeT54V9VslTOzUyZgAAAA0SCOQIYUUw/g/OEYJGPo9z7hswwK41ZcqmbICDyP/0gvpuZWlha9q02E6lvf3qc+E9ANXj4nin6w1szoF8jiefSsEr0ON66pjugYGNXxmzVw2f9uhXvhzHmAEAAETEIvptBOO/xjbN3UduJCwhft+AEe61CoVvR/FERGocuMgufqL3J/HjcTx5Ulhj2OvJfeN8d0+1+vZeX/7A8dTKtFQGe/rvaev11Z6h/86T58Q5ZgAAABpwnfuIBvQbrxHeEWJ2A8aYxYEiZQpotvWcLshpg8Pz9ZPA9eXvQ3sAVqitkugDxwm4vjzI8dVNKXgE1rienKOxcbgqiTEDAACYAEuIwyK62H89/DkcoGcT3RzVKFsRYwU02322ELN0o/gbwfXUopAn4XV9fX2j6ifEyTJv5TZcLtj15eoUNgMTb3o8uTDpMQMAABiBJcQeNtFLEQzpguFyvJZpbhmkyCVvwLVbcfPNa8Xp0zs7ifYcryphUrCwTihD6MuBVPs1MPAOVv5zPLUq0w2AL8tpjhsAACY9Vnv79Pr9t95JnWhgeGoexwDYQjyataEf2bq2e39t8Ukn13puWcKnzNOy+OBcdS/vJ2EuEez0q8PDihXF3+TqLMYNAACTEo7at4RYpW1YiZ7hlLyh53BOfhYldcdr8z+xZ23JRRfX3BXl4Ubmrizmudev7hb+JKwuy6KPr+pvufwh15P/CO7xU9wEJFmeGAAAwHAxHSF6I5z811im+Ul+Brv/LSEuzNrYD7XiVlvVuNzuXVbXWKfrDb2+v0XaPwK3LL8Z3gOgvpeXH6lbLpPrq58nXZb4lbGXV26f9ZgBAKClubGt7U2c6x7J0BYK3+JnsCwvxwBkbfS5dW2//bOLzzqnVupxJzY0njw77fl2PHVBWCPIqXNGzuDcfsevfN315LIkNwC9/dUDsh4rAAC0dmlfIjuSsSUKjOc8oq0sIbyMDX+QwmcVCge6K/yDwhsaeS+nw6U5566n7NBGUKn3GDmmfp0xOwmVwZJfRVlgAABIgro4zz+jGFyL6O8cPW+b5mfq9e6zOe1vt13tlh/N3NB9wAHbDo2L0+Z03NRxC+1MhOvLe0L1zVOPGk3C8nJ5auDZ8OTTsW0APPXnrMcFAAAtR2C8hfhDxJP/zVzjPqiAl06e/mvavF12qd127qyas2zFqNXyHE/9TsPYzE5r3rkIEMcehOkXC/QYTQaPj6sRhq/8N874vercrMcDAAAth0V0fsST/90LTXOGJcSSLAz/wk/tV7v9j1fVnP7KcEP521Ej18Mbm7Wsk5+3DADXVxcZTYjrq11dT/U37gWQN2c9FgAAaCksonMiGuD75hUKX7NGyvISJWr0i+3ttZu+cGht6b+uH8tQHDraOIOCNDkzto5f+XboPnnqWKOJ4BK+ricvCevhCOEB6ct6TAAA0DLU3fZRDPGjRaLfpenyZ7W+7q8dXbura+G4hmJZpSJGG6te9Tm5usf3XxEySgrO69cwgrsaTQJH7Dueui8Owz/smzyY9bgAAKAlsIQ4KaLb/znbNLU1AqI2yzSfX3T8CbXSbUsnPiV6qjrWeJesWvVGnWBAx1dnJv0NtJT1BgbeYeQczlKoiwTFaPhf+R4vZz0+AABoemzT/EFE47/WFuKZVAw/0UpLiON7ltx5ZlxKea4nzwttdDz1WF9f31uS+gaza7WNwhbbYS1+I+e4vjwkbE2DqK23t/fNWY8TAACaFovoxEgGOVo1wCjvKXWa5heHCglpnZLL6uDxxt7TV23XylH35FlJfYdSufxejX5YRk4peV7B9dR/kjT8Q+1uKc2sxwsAAE2JTXRCWq77CIZ/CQv3DK/Gx8ZFI4hsbU+1+vaJ5sDx5Z80DO8LSRmdUlkdpmH8fmHkjFqt9v9cTx3j+OrZNIw/N8gBAwBABIpCfDetU7xmu5UN/2h9dvzqcRoGIlSaWGnFyg6+Tw6/CVBXJPGDc311bmjD16++auQIp1KZ7vrqtliMuk6WgCc/kfXYAQCgqbCE+HrejL9FVLRMc7e4ZHIdv3pK2PlwPXW5htFZV/Kr74/lQ7yqD3J+6D6skDOMHMCqio6vfuJ46qV4TvXyHg62DL9ZqHwh6zkAAICmwRLi6KwU+sZonUUhdpmo3+zO1zqpaxhJFvrRebbjqy4jRrjeQFiZXHaxc8CgkTF8+nY96cV16nd8eSlrBZR8tVf4zZg6Jut5AACApsA2zaNyZPxvtYTYI2zfXU99LbyBln7COfh8Wj3IyCAAMGsJ4L6+Ve/iuYpN0MdTVTb6Q893y9VdkvDyAADApKWT6MicGP9bO4m0y9g6nlyoYVjO1X0+B/eFTcOrG677wwQZhsH11FEap+XzjYyC/JyyPNL11eMxnfrX80ZiZGpljz+wbd7nAgAAmurOPwfG//axgvsmwi2XiQ1GWMNQ8tROkd7jydO1DJknL4nynte+V12c53tvt1zewfXV7XEY/sGTu7ybT/pjvIvCz7+6OO25AACApsEiOiZj47/MJvp0I2NwfXVyeAMj7+HTavSgNlnWOIFucHy1XyNj061LwNoFRkqw0I7jyVkc+BiT8V/Dz6tUKm8Yt2ZA+I3EH9OaCwAAaCos0zwuq2h/S4h7efMx2zAaDlhzPbksLbdwryf31TrNeup+vheP+r7ugYGNwwYgOp58xEiJXl9+kfX2Yzv1s4BTiMBMDogMH18g/57ObAAAwCTQ9o/B8D9uEc3s7ujYOI5xcMqdjqFZ5lW3a/Sdjq9u1DJwnvxH1Hf19Fc+rLG5mWskjLNCbeX6cl5sht9Xz7m+OlEnc8Hx1fMh5+O6ZGcDAACaDDbAGRj+520hZs2fOjWWwLghHF/9VsMQ98bxzuXl8lTXky/qbQKiled1PPlDDWP6EyMhenp6/tf11UztcY/bXzmHhZZ0+xLa8+ApO5nZAACAJiQD47/OEuLSrs02e08Sd9Bh8+PrJ8KT4nq366kzNL0AL5Y8taPue/gUq7EBaDjeYDRKnvyM6ykVm+H31P29/epzUfvj+rIScj66450JAABoUiyi81M99RMVu4R4X1LjcfzK1zUM8DquFRDXu7u7u1+nE5xXN3wrdeIBgtQ6Tz4ScnOzocf3323ESG9/dWvXk53xGf4gKPIyDuRrpF+up/pDvvP2+GYDAACaEC6YYwvx67QMf3Hrre+3iQ5JelyuL+/KskIeB63pytyyXgG702MXAPJUNbZxDQy8w/XlbzgqPy7jz9cvveXyh+Lon+PL5SHnxI3jfQAA0LzGn+iiVAz/e99bW3zW2U8s+f7335j0uNidrmWAJij9GxW+VtA3huryMM92y/Kb4Z8r/9boWDgQj+VzXU89GpvhZ/EkT/2IPSZGTDieckJuOry43gkAAE3FmYbxPxbR5Ykb/qlb1m455bSaU1rGJ9wfpjE2rrqnYYQeDHvqjljmNnQRIp14BNdTV6ele7+sXN09tGEN327gOgpGzLievDPkd78n7ncDAEDu4fx6W4irEjX+7e21Rcd8q1ZasnToxPVCIznvYXEqlU35XRqG6OeJ90czJ37wPrzy9XGf68uBsM/j+/oofQ+U9Tx1dVza/YNjU/clqUgYtrSw48uHk+oDAADkktnTp7/eFuLaxAy/adZu+uJhtbsWdGeivKZXElZu6KlUtky6T0GVOn1FvLVjFQ1aVqmI8M+RD+mqGy5ZteqNnDaoU98ghOF/yfHVz/jZRoI4nrwlb8JIAACQOda0aW+wiP6TlPFfsM8na0uvvW70U6hf3S3p8QXKeCEj4wc3JapopATfdWsbTk++6JSre498VsmXX9EwvNdo9dOXh7B7PC7DX9+EzIvqhdCFKx6G3Ril0R8AAMicG9va3mQRzUvC8M//6Edrt192xbjuVpZpTXqMQZCazqk0odz4sfsn/xHl5My59iPG+efwY6weF6pvXErXU4tiNvwPchVAI0UcX3WF7Vua/QIAgExghT0upRu34Z+3ww61237165q7ojyBEZKXJj3GesBd2Bxw7lM5jU3JawvkKDfKJqDXq7xSDZHFckL//QQa+qU+Oc311bVx3vMPFu5Rv/I8761GyoTVJuA5TLtvAACQKnPb299pC3FHnIa/a8aM2uKzzlnnLFsRziD0Vz6Z9Dh7+6sH6BipkiePNzJgsDyxui+KUeUiOzr5/5yyN9b9PwdkcnU9Xa2CiQ2rXNjbrxITeJoIvtYJuQFYlVUfAQAgcawpUzYNSurGZPiL22xTW3z6j2s9d/T8I+wp1PHkU1wqN+mxOp68NbSR8tWzjSrONS4SJJ+KYFw3uP0VK/zfyH+NHuBXPUVHJjnkZkM5vvyskTGuJxeEnJt7s+4rAAAkAuvrW0R3x2L4p02rLT7p5FrpztJKPs33KvWeRoxQ3HCgnJ4hVb8yMoYzA8KW8o3ahns5glK5ZXkkn3zjfAdX33M8eRoHYBo5IGwcA6dRZt1XAABIyvj3NWz4N9+8tujY42o9ty1d4/jyp0OLPAfPaRiJE5P+xK6vbtboz5q7pTSNHMBFbwbT/ZLZAAyVN+YNUgJCPpEr9iVJaB0AT63Muq8AABC78e8Uwm/I+Hd0DBr+W+/gRX55b6XygeHvcPrlqeGNRHXnJD+x48mPahqtK40cwaI4ETQCwrTH3XJ5h7B34lpz6CknjbTORJUAPaWy7isAAMTGgi222MzefPMHIp/429tr3Ud8udZz0yJeJNdykNho9/dh09nYxZ2UzO6wvswPb7jkhiwD1MbC9dRRjifXx2qoPflC7M/05YO9XvXotLMndNDIspBZ9xUAAGLBmjZN2FOnPt+I4b9r/k1DxmPZyFP/cBxPLg152r47yc/b01/5sN7JVc41cgob1oQ8AXFtJmZlGTgZFv7NhRwTigEBAJqf+Qcc0D5vu/c/o238TbPW/cXDanfa84YWxuDUX6lU3jDe+wL3crhF9h/5iPh+ZQPwUSPHuL48NNYyuw22ujbA7CSK9iSF40s/5Ph6su4rAAA0RPfhhx/U9b7t1uga/5s+/4XanTd2DjPWakWY+3o+BYY2IL46M1F9fR1jlqLsbyO45eqnNYsZJWX8b2V1QKPJ4Lv9kOO7Jeu+AgBAZBYc9qXzilOnbtAx/As/tV9t6ex/jzjlyQvDpnFxZHl4ozt+RbuosLiN46k7tIxaExkzDrBzPfVYNoZfreR6ALoFhPJC6MqLnrKz7isAAGjTbRivW3jAgUUdw79g30/V7vjH7JGL4GPDJWbD4Hry42GNScmXn0ri83KVPM3T/41Gk7G8XJ7K99SpGX5fPuH6amZe8vmjwroEIcd8bdZ9BQAALRZ8+tO04GN7PBj6xL/PPrXbr7x6NBfowpLnFXSn3y2rg3Xz0OMkELQJG+hV93As65cfNJoQluvV1DiI0ORqjvtwBwbeYTQ5s2u1jcLXNJBXZd1fAAAIzcLDv7J/1/Y7vBzqxL/7xwYr9Hly5OLHQWYzo6ZyccpaWOOShOCOTinc+gbgOqNJYdleFlJyfPVc7IafMw48dQXXJjBahJ5q9e0a478k6/4CAEAouvc/4CR7iy02hDL8V1w5muEP5E8bjYR3/cr3wy6yLBkcv0GU92oY//VJeCGSpq+v7y2OJ0/imvVJnPpLvnyix6t8yWgxeMOpMQ+/yLq/AAAwIQsP/MylnKs/nuGf99Fda0suuni80ryz4yjP6vrq5LCLLJ/I4vy8ridP1zv9q2uMZjvB8hhTCgDkSH+OAWnWgL+ROJXKdA0PwFlZ9xcAAMakZhj/b8F++3eOa/h33Kl2269+PbbhHxSXmRnXIu948odhF1k+scf1eZcvr27GVfw0Fvh1XDrXaJa7fk+eHaVCYCyN5XPL6uA8K/zFLgzlqR9l3V8AABiVJR/+8Bvn77XXivEM/5ILLhzvxM8nvEdcT34izinmO+ksPACOry7TOt368q9Gzgk2NZ6cpbWxSbTJCm/wlvb3b2I0IU5/dZ/wv4/qcVn3FwAAXkPXPvu8Z/6uuz08muHvmjGjtvisc2ru8v7xFzhP3bGsUhFxT6/jqe+FXWTjej/r9+vI5HINglKfnGbkOcXPlxfmQfBn1ObJFx1P/SWvBX8mqK4YdrNzaNb9BQCAV1H85IHT5u28y7OvMfzbvre2+LQzao6zPMzp99KJ5Hyj4viVb4c2xJXK9Hjeqbp0DJjjqQuMHMJKi5x/Hn+RniQ3A2qF66kznBVqKyPnuGX5TY1NTqyeMQAAaIgFu+/+wa4ZM156VaGerbaqLT75lFqppzfMwrbG8eU3UtCrD7XI9pbLH0pf9Ec+yXfqRk7g2AsWRHJ8dVOyhlpanNqWaEGhYDMgz8qrd0UnSLQZs0MAAC1K9x577NA1/b/Gv7j55rVFxx5XK91+Z2jD1+urPZPuZ6lc/lhoY+xVvtDIuziIcFCaNryRKnnyeCMHcEAdR9iHrk/faOuvfJLfy5LHXOgmyXex2I7jKcf11bn8e+ju7n6dkQOCa5WQY1jaNzAl6/4CAIAxb7/9duqa8b5BgZ+Ojlr3146u9dx8q8aCrKppRbwv81ZuE7pffvWURt7l+OonWsbJk15PT8//GhnCgY+DmRLynlQM/2B7fPi4B2slVL/Eug+pvN9Tzzi+/De74Hv8gW2zSivk6pNhNzBZ/04AAIBL+e4cGH8uzXvEl2t3LejWXYCXxC24E5/amroi8nv6qu0auu6DrVz9dLyj1ehvpbJlENGfRSqfpy4ftU89Pf/reuqYIBsk3f4843pyPl8XBF6QlGSGw5aHZm9ZGv0BAIAxufmAg3cuTp++ZuFnD6rdOceOstjOjjPXPiyhDbOnFkV/h/y3ntGR842UCU7a5ereji/nZBnYN1HRJTbAbIzrBX+y6ONart/AwkwcUMjR+hxUyNr9cX4Px5fLw/VHVuJ8LwAAaLv9F37uC08tnX1dpEXV8dXPsnK1Op5cGtIoPx1lkWeDpmn815X86vuNlOAMC6csjwxvcJJrg0GPfa8P029WghxUckxGYjhiuqHreOp615e/YZnpklf9PGdLsEZCYqWAfbUk0ocHAIBG6b7yyo3vvP6GJdEDsORJWX4FdjmH7m955fY6z+7t7X2zbuCf46k/GClQWrGygwPf0pLqDbkB+GPEmgrfcX0ls+7/RBsE11cPBNUfPbWINwo8XtdXv3Q8eVqgSeGpY4LmV7/s+ipsBsQNyfxCAABgopKluu7t/y6I6zjQKusJdvvld0P3uV9+V+vZvvqlngFUz0Y5LeqVH1b7peHmd3xVCkrzxuj+n2hs9RTFGxNNH8xbayA2BQAAIuP66qKIC9dadjvnYeqXlau7J1GQp+SpHXmcWkYzIW8I35s7njqBMyzSLMqj8/vQcf+H9W6kHjCYQXN8dWYccwYAAKHhe/toBkK9xMVa8jLV9VS3UKdhx5cPh4kD4Fzyem65xkIul8edzsXlklkGN5jzJA2RJ9c5nvrnsn75waF3szHXul4YI/q/EYLvwB4PngNfPZe1sU5m7tXX4p43AAAYk/qda4QFS67Oo2ypjsBNyVd7Tfw89SMt4+/JDa6vdo1jLKwcOHifLHuTNz6s/y9/z2mDjWnZqxqL8BgJ0tPzwJucfnV4cP3hq5czN9wxNS4alOS8AQDAK7AB1HVtBwuVr17m01gep9L15DlxnVTrxXFWp3mPG9ztl6t7u566WvvdUYyOJx/h+/2S5xXGnFNf3RD+mfKeNLNA7qhU3jYYoS//xF6drI14I43FrNKaNwDAJIYFbVxPPaq9UAVBWfIQI6fw6Tv8RkY+OV5xIteX8zSN/2NRS9ZyhULXVzN1Mw0iG35fljmWYCK9BhZz4loOGs/9qZERg4GR1Z1ZW8D11W3N5h1gz0ZWcwcAmCR0Dwxs7PryLm2j4cn17Ho18p/N8GTYMZU8+ZnRnsOBjdqLuKeO0q8pUP0SK8WlIdgTpGr6qsj6/GFP6ZwD36ynWI7DqAdwzqxnS6Svhhj+t/NY1vMFAJgEsLs0ivHgvGajCeAgNo1xLXzN31cqm2rn1HtqURijGmxQ2MXvy6sCadpUDIxc7fjqMneFnKE9l5zrHn4ulxo5hgMJgw1BWX7T8dTvHE8uTu8bTDR3ysl6fgAALU4QVBZtgTrBaBI4M0FnbD39lQ8P/3uONNecnzUTGVf+73XZ23QK4dSLMfHpN+q1BGceaL1TU1shD/CmjWM9AhlgX/3Y9dSfg42Brx5IdQPgqxuzngsAQAtTX9DXRFicfms0EXzS01zArx36215P7qu9gHvyvLHu9es5+056Rp89NXI+x2k0qmnPxlDj3WuTFD7KgkCZcIWcUfLUt5K+PmCPRNbjBQC0KCxlG0li1VN2Xuqq6xBI44Y34Ou4CExdZGeV3uZIDgwP3rpbStP11YksopNqIR5PPs269b391a3jmL/ly+9952BqYOg+tJyMLWcYDGpkpJKN8cOsxwsAaFFcT14Swfj3p1UyNaEyuBs0DPlfuWku2hvYY8BqdbyAu766XeedMRmOpb1e9ei4I8h1r4p6+6sHGC3CK+WKU0wrZMXFrMcNAGhBgtKw+obp8VKfnGY0MRzgp2PMI2yQltRP+ukafV89y0F9w9X6Yp87reA/dV/cJXSzgg0xl+VN83vmLXsCANAi1N3a92kuSGt6/epuRpOjGwyY98ZFefhkyuVzk5w3/vZaffPk2UaTw4Ggjidvyejbro1bOhoAAKJEtHM7uRWmjiO8dU6yeWwcfMan/TQ3ZK4n/6HRv/V8BWI0KXzydn01O34vjrwrfAEjWcl6HgAALcZgvrmmwfFVkRXVjBYhENrJgSHXVlv0pMWR/OMpFSaBWy6TVqaIJzuNJqTH99/t+vLCKFLY42+I1P3spenre+QtYTcVjifnZj0fAIAWoq6It1xv8ZKPLO0bmGK02Dy4nlyWuVEPK8/bL09lI9w8lSHlQUbzZcPMjF8ASK7mmgp9fX1v4fc45ZXba2wafpX1vAAAWghWO9M0/uvZY2C0IL2+2jPHRv/JIRd/mkV0RoO9DXqR7/KhZrm7DrQhPHWM68sHY/1+g6f82VxbY/j7SmV1WNhnsM5AdjMDAGgpOEhMN4XJ8eX/GS0IewB6K5UPuL68N2tjP8xwrnZ9+Xe3XP10ngwo1zLQ/M1kVvhHOwtG0xsWst0+UkVyCNdXPw/7HN6gpj8rAICWREsEZxQxm2aGXbBc5tjx1ZlczY9T5rI3+EFb6/iqy+lXX006ij8qmoqFa7K8qggDe1Xqsr5xf0vJGSbjvZuLD4V93nilmAEAQLPMr3xRa0ErVz/drFPc6/tbuL48tB7Q1RN3UFcMwXwL2PXMQWdGjnH6K3vojM3x1DVGTgk8Pp7sTCQjw5M/7Ovre/1EfQjtcUIVQABAXLieulhvYZP/apbZ55NSINQyWFRnTvg0q/RaEEsRiAOpE5opoJIj0XXGWeqXHzFyRo8/sK3rqasTkGBm781lvUq9J7z2Rsi0Qk8uSH5mAAAtDxdj0dFvZ/c4F6wxcqjB7paru9TvpH/Bin55ruXu+OplrpngeurYZiyIwwVvNPPge4wcwfUXgnLHSXh/PDl/mVfdLilvCjIAAACxwFXp9AxX9ZQcbFg+zlHQrq8u4sU2gmphVkb/WcdT/+Rob96wGE2M48s/aY29LI80coBTqWzKqXfaV17h2pJl5eruUfrl+vI74TcY6qj4ZwYAMKnoHhjYmO8TNRaex4ZylpOAxYTqojK7shgP57c7vry0flLu16w0l6MmK46v9ktboCcp+BsFHozQGx/5cNZj7+tb9a7Ba6AEAjw9tYIFmBrpX90bEep9HK8Q38wAACYlHF2us9D1luX5y8vlqa43sPn/b+/OoyepqjuA1x/xaFyCS9CoMRoVjctR3HEXgwtGUVRQ3NdxC4pLQBYViXrYjKJGnICoOHEZFsXgQkYZEFTA7lc9M79f31d1b82PAQcIDsgoi84MnJz7qgYG+M1MveqqflXV38859U9OmN/r6rbuq/fuu3f16nX3WezSPU/9/zFp+tghyVN0aTNvLJS+Nqbsja7XveV/jy2faIjPdLXUXXCXq6fdIGeqF/HhUU8Y4mM8P/tRoYv4NLEd5NpAkyypo6lRkYxa5u9uDj2ZAoAeaOi4E67t34PjQxfumdQgy3aJia/zCP43hUhs1Kz7oojPlbUHfsvX6KRCV9DqK6ZUbkVF+1TU8TcBYIYV/ej7+8bd0stY/rpWmIs6KiY5wu/zytJpjs9tI1nez5Csrf/7y0v3asZ+nWMeJckzSt9Pkm/X+bcBYAbpknToYDirl257lD0e1iZuOZ3k6tKflXiLmZfdpjE2XYYfWn6z5ls08J25I31NFd/xSQA0xB9rYgwAMEMMSRw6EM7yZUiy0VgeH3WIa4jj9zmXNz0mXU3REwZNBH5dITOWz9BaAU1+Bq1DUHZM02zxDAA9pG8yWP6/9SF/c3HC4Mex5S2eQWJznMjplQOMy0jvRmc8LfvsW0TJ2OxpjS/1W04amqRVPtLnKyamsr83XYWZxpgAoKd8u/716+IrXM114iO1QuDF4/H9ij7v3o1/9JiiJvXpvv5kb5mytO19FUaWP+L12RqqVqeNkEaUvUNXUJr4fbgGQFMsc631IMpWIdS+C9MaFwD0lOsqFzwQT6Gmvjt/z2cBzR/CAAAZXklEQVToMTRj+ZWL7eHq3rE2APIPFHKOvoXe2jbWymkTjneVHp2MWujXl132174tcUfEL6k78BvL72omuU8vXqfHYrd+p+1sO80nTnNsANBD7vxy6ABd78P7Ul3C1/Ppmgi2asxPLntEy6cF623Bn6+649E2N5Eg/uqEn+MGLQ3ctqOCmnjmd39kWNdncIHf7fELN/HbKbY1ajvS58tY+WTpsY7lrSHGCAB96vwXPGB7X5vyAKCtevlreTIa76eFhiYpqatbAL65EK5xzzh70fb+TWPlExPnVxD/fJCmj4haQNsQe1WLzCdIr6wt8JNII7+p/DMdoqsbUUA+q0/DJHlMyLECQMeNxtnLWxDQtwbTW/QNzFiZ0+Y9seX/ji1/0RAf5pr6EO+pVQfrqLR2R8M5fmSl6nDEn97Zv21s+s6Jm8zkZY8PDl0zwOcNNf9OxUzy9q8FfBoN/FY2aP5HG3oxuBMMJUsT62912tsTANAzmrhW+mE+lmUaiA3JB4s326O3vXTJWxPYtr2KEr9HF4HjYK3GVpzP3k9LAmtmtXZK0yX0JgJ76Yx2TfbyDspyftkxuxbEuqQ/8SRJjK50ROHq5183jbd/zW53ZaIbauzkqvcRH64rGlFL6CmJ8uOXn4UeLwB0nLH8jbIPnWGSPC/qIWN5WYXgf7U2wfH5O64XQg1Ja8VRxZOn3TbYu1Nkhbd/nWS4yaLnNkP5742v0zd+LWEctUxs0w97TAA+GXq8ANBx+VJ7uYeOHo+LekZXM6oE4KpZ7dogKbZyVj3BTDbqqoouk0fT6fh3vd8Yy9c0KNo6H+m7wuARMK/XlSidYEQtpc2wSn+ecfr80OMFgI4zlm25ByhfG/XMYJzu4dPG9raHLx86yd91tQJIPlQkM9YR4HjS9rM7E5N8y2+SJHGZt3/XTdLyCdokqInAn2+78AkhGhD50HtVuqwy8U2hTikAQI+UXmolmY96RANCbGV9hTfJH9V1pE23VKqMYQdjO1cbyUQ102OUZYvTlN371+0QrZXg+++WvohvMsRfmPY2SVWaB+Px+c4LPV4A6IGyb17asCbqCT1Spgl8/gGWF7RSYJ1jyZe+5ac1n6Q4s84jYhpwPMfx6+39W1q7XisvNlV6Wld0XPKpZ35GaLGVg+o8eQIAsEN51bvSD52f9OV2agJdhTfKG02y9omNjcnyfnUmvhVv1st1iX2ScY3G8uoK92rPO9XpT2RfQ3xxE0E//7zyZ60JoXUtog4yxGeX/axaLTD0eAGg4/IGKqXfrH4U9UCx9+4fYKZQdS3fluDT6w6Muge+Kk3/3nc8mlzoXXGP+Mdb/3vdp9Zyva65UkOBX/f4dam/a2/8i6xIbSz5v8O/tL1PBAB0RF4jfzZWALTuQLWCPNOtuZ5XJJTf1ToR0GRHklO14FHZcRjij/pNNvjmUZo+aSRy/6JVcG35DdvpnHjCYHzpA6OO01oYHvf4gtDjBYCe8Dja9auow1ylPy3+4htoiC9O0/Su0x6vHhfUGg0N7JVv0m6FOystrEc+fSsjGstnG8un5KsOzQR+t01CckS8sHDvqCd0T7/85+ejQo8XAHrCNc4p93BPoo7Sam/G8hr/t0y+qsrSeZ1iK8+OrQwaCKabtQvk9qoKGitf9rtXcnPcUGLfrU16WlKyt246ufa4F88OPV4A6InSwYX4pi7WHtcxa/5ChaCzqS2VD13dANcBj69sKLheqEmIW8saD+zCP9VYo2DCiy/VvI3QTXqaUhSGKrUtpSsyoXtBAECP+FQf62KGtW/52tsmPLIkahl9+zWWj61SvKhUgNGiUCRLNN8jeODX5j8kSzRBLuoxM5YDPCZDp4ceLwD0iGviU/YBlMi+UYcYyt5QaQ+d+KtRy/MZ9IhfU2fpQ15aQdBQ+tourjZVkXe8LD1Be1fo8QJAj8Qkby//cOajo47IO6v5d9/T5fBp1Navw5DkqTHxz0MH7ZquX+nph7qqLHaoDseGPq/AAUBPSpBqy9yoA1x9+bJ11W938To9whZ183hjE4mCjV5FsaKz2pJr0ebjf30rxQ0AbSkGVLIIiV6jcfaoqMWKffI1lWrH2+xpUUfpm/Mwkdc3W3SnrsAvf9aaBCZNHxvNMJ/tN0Py+dDjBYAe8qpFT/JvUasrqvkvieteugbPqCcTumIiMB860N/pPlu+SvvY97GtdBU+E1Uzzl4UerwA0ENDkvd6PMgHUUtpxb5KwYn4yKhndCJQVBQ0oQO/lhPu81G+CRI5y/4+r+tKXgoAdMyQ6EE+GeVt3LM1Nvt4xeB0Wp8Tz1wdBEpfG1v+7fTf+NPBrCX2lVWUSi55L/k7occLAD3m06mtbY2BhpS9pmJf+UHfG6u4CYAmCZKcGjdZone7b68yr3vd2gY49L1ok5j4krL3cGT5daHHCwA95vNGosFWq8VFLTBKkmdoq17/4MTrtPte1FNa699Y+YwhuXzqQX/7FxviYwbjdI9ZOee/mDXMDym74ua6/2XZLqHHDAA9polZfoE0fFUyt49a4bifsfInk6x9YtQzusce2/RNxsrK1hcJ0qY+Vpa7an896OjnI7ZykMdv9WehxwsAMyAmOcnnIT60/NJQYzVpuqt3r/pi9WJIvE/UI8MxP9MlQBJfFzywV7j0O3FbUMRH6orO1p4EfWWIf1l+ApC9L/R4AWAGjMbyeK83R5JxiFrtum/vk7Nw+yv9cNQDq2jto10bWa2Z34IgXuuEwMqfYuIVui2l3Qr7tF2g204x8ZaSE6NbQnejBIAZYqyc4/ewzj4+zfHp26Eh+UHFwLI06rCLx+P76ZK5litu/RJ/rRMCvka/c0PyQS1/3OWOeHoc0uOz/yb0eAFghsRJsrtnRv0mXYKe1vgMyVcqBRLiH3cxcOT7+ryfsfw/ZdvG1n/xd2KSk9uzxcA3xCTna6dHV+sgTXeN+njahuRDoccLADPGWP6G1xsaSTaNTOWY+PCKQWMwGo3uEXUp6CeyryH5XrUTDjVeJLL13q1cWLhbbHn/YjKyKfxE4Pa/Qdch0WYf16p5c3OX3Tdq48mMstn/OglPkgeHHjMAzBh98Bgr13s+gL/f6JhI3l5t2Zsv7cJxPyK6lyvha+U033vfXFDlm804ff5i49W37iHxgdVzMaYwfssLxXbR5/R0hOYThKz7YKx8ovT4Sc4PNU4AmHFeD6tbH1p8eBNj0az9SsvfJBuHNntC1FKrV6+7j0n4LfmbazuC/h2uL5X5HFoTQhMSjZW5Fox5x5MC4lsMyVrdEoqtHDei7B168mA6K1jlGzUZm76/6fEAACxKa48bK0Pfh+vQ8pvrvKUjKy/UTn3+D3r5s/637cwClyVFsmWrltG3t/TvezrBEB/WxfbEseUrixWN5bGV4/OkQ95H82Im3VIYpemTyt973rJ6dfaASf4eAMBEhknymAp70JvicfriOm69tuc1Vv7oH/w1iZH3b8vXH8/z4/RIW5G9X6VkcWuW/r0+Ny08bGT5I1353Du9L/pbzLssnudWbUi+Yqx8Krb8Ae23MLTyz7rNoG2OVyfJw3WFZ+uWQ2z5ix4TgBW1/PAAACahb0GVlt4nPBlg5mU3bR9bLYCFzZ7WN2eXnW5lqSH5XbCgRbKxygQqtnxCEysfutyeB07+Q+hgPuVrc9mz/3rpfar7/gMAeNNOblqO1DsIW/lj1a6Bg7nsHwzJZVUetlr/ftpfsxaq0Te/2MrBxsq5IZf23Zs28QozlgMM8ZkV7t9c02179TimNgeKrXxWt5lmqabBzi++4aI0/Zsm7z8AgF+ymuWkysNMj2T53GrNLjeWbaWHJ8nJ02o967ZH3NIvn6mFaoIHDuJVus2gkyc3PuIDq+RNhOiRoKsDZixv1Y6FVSd+fbmM5WXTvv8AAGWSu/yXbolv1OXwMrdX33x8Ew+3uc5qstBPXnpXjyLKt2PLV7QkWCzoW7SWcF4kd+Ivvv+e7tdHLaD75267YAYnBCPil4S+/wAAd6LJfdWO4+n+545r8OcV71xylX8gJLmozkI/2t/AJXPlZVuXV+k42NTlVhs0MCbZXoutdhSrNQsVvqMVba25rxOCYvL1X26lw2M/vWPX+r43QgKADhuSvLfqnq2x/LXF3tL1/6Zv8NX+TZnToFf186RpelcX7C2/y2V158fANrUw+/xUY2XvHa1y6ISg4n3c0KWqc3Nzc/eMifc0Yz40JvmhHt8L/R3V8j0THxP63gIA7JAuFVd+0BGv0KY2W/8tfeNxteYr/Xu8rmy3NA2Ow/m1Dy1WMQ6KLX8zJh61LdhvE/S1MNBpI8uvK5uUV6V4Uz6Z41d1/Sevv4PROHt5THKE3jetY9C55MJ5flzo+wgAsFOG+KOVgxvJ5ZoFrkvOvn0Htrk2aCLetmPSQKlV6TTxMN9D1na5/F1DYlwDmdAP+J1dJL83lk/RnAnfTPw4yf6lyll7Q/yFvv7cNadkVZI9V1ettKqhOx1Bcnnw73nx/01cFPp+AQCUZiz/+wQPvc2x5d9WD5Z8Sd4ili8oSqxuCP0Qr3bxpa5IDPELqu7/Duf4kVUSNDXoaMXHWfvJ68QgTrKnuzLMroQxL9PWuyFzPYxN3xn6vgAAeNFl584ttQa+jOU1OnlaNeYn17Efrv9ehTFco1si+LnfsfKlnDT1tsskG7vUrRIA4FbuDHdL99Lbsp+ft9DlD2hL2Lp+OrqFkifBeY6H+JayRzP7TrdadCXArSSF+o0QfzX0fQAAqEz33auVne3npf3ptRSwBlo9adDET0v37yuO77hoxrktgPzUR/CyxHWsBAEABDUYp3sY4v+byYCfVwPUmgFL1jA/pOl7rasJ1SYm/IsmCya1WV5img+LiSn07+W2i38b+r4AANRCg58m6PU+4LuJDp/umiUlye7TLOBiEnlZtWI4fOnA2r+NZojWiHBFhKycO42OhGbstwqm9SdC3yMAgNrokrer2taCQF3fxetcGeCE361HDUP9XHSyUWmrhfjGWVlq1kmOBtaY5KdTzE3ZoDUI9BinR/C/Fsl/ANBLMcl7qtSkD37lbXRX6l75MJHXtyVbfkj0oMq18UneHvWYFpdyyXwu2XKqCamsJaM1kM/NXXZfY+VPHv/tzOdiAECP5Y1pqnQSnGKwJ/6lIfmPmLI3atOfNtbEd8f9XEGjKp+Tvxj1kJYvdl0PSc6fxvL+7X83vEK3Yrbtx1BUISz7328ZWfuPYe8gAEDD8kY/fELIegG6Z5+/1fOJGjT01ELZMsKhadKeIT67YqD6SZ8azJh52a0oRf2raQd91y7Z8ilDmz3hjuNaubBwN6+eBCQ/DHMHAQACGBLv00C1tS0uIY+YDPGF2lfAEB+tWfJaG14f1vHCwr27+oW7Bj8kJ1cL/jLf5c9+2zn9bC/3nernCTGBJLna/f0dNEwyNnuf12Qiyfaa7p0EAAhs9ersAVrCt9Y3MysrR1ZeGPWQnlWv9raqk6KFh0UdpEmW2j7aWDknJr4pRNAvVqvO07wCfbvf0XhdQysS8ZmYLdbKGQBgJsSJ7Kv9z2t+aF84tPzSvjxcYyufq/bGyjcNx/zMqCMGg/V3v+0tP/QZfb5Cx6H9FcqOXzs2+n0/8rZm7ygAQMsNsmwXzQ2odqZ9hw/xVDOzfTvqtUls5ZCKk6CbY8v7Ry2mb9RmnD7fWPmUrt7o3nrYoC+bjOUztKNilXwJY2VY/vuRy2exARMAwKIM8bNi4lV1P9iN5auMlU+aNN21S7fedz/5DtdBUQuTGIckT3GTGuIVoZb173Tlqw2H6LZU1c+myaR+fzf9cL13FwCg44p91Pc0UkqY+EZj+et6JDFqudimb5ogu/34qAVcRjzxC2LiI3UfvTUBv3gDd0c+k+zpdXxWN6Ep+7ctX6PHOev4uwAAPd0WkOMaLCA00CpxbazAZih7Q+VWtMTfDVW/QAsUaU6HsXys1lRoU8DPL77SWPnyyGbPqfMeFasaPt/RUXX9bQCA3tIkLEN8ZmO1A4ivcxn2SbJ71AIjyt5ROReC5KfT2lfWMs+aYOiy9Em+ryWSwwf4Re/J743lr8XEezZVB6GoOlh2EnJD17aiAADCt231etBWChbzk+4FT7rnX3Wio0l0TSU76mkKNxEbywFaTdCQXNTq0s550P96PE5f3HTHwyHJUz2/sy81OR4AgN5yWePEFzQcRLSG/Fm6nD2tN2pj0/dXDv4kFxHRvepcyh9R+grdu3eTLpLfBw/qO78HmasymWR7DQaDu0RT4moUlB/n5q7WZAAAaA1jZW9DfHHjgcXytVvfJhtbQh7zoRMEPlO1yp9ObnTro2iT+2VXVtfK9aGDeclrU0z8cz3tMEjTR0QBrEqy53r+lpaFGCcAQC9pQpe+pU6jv4Bmb8ckp+rbcR1Ly5qI5jLRq46JZL7MfrIu4a9Okocby680xIcZku8ZK3NT7pZXx7VBg6gW3NEk0SiwolNk+fG3JM8EAKBXdC82tnz6FBvDrNeGQroyUGWbQJPoNGN/gr/Pg/GlD7zTXv382ofqmPTNOCY5SVdJPFvTtubKm+7IuW7SYrOntamZkW41eH0WKz8KPWYAgF5z9eNJTtIz/1MLVsTXafMhrbxXZi9e3141sFUOjJavcnv0lvc3Vj6RNz7SFsF8Q+igPVnA51uM5dWG5PO6xdPGI5pbxVZ+4/O58PYPADAlF4/H98vL6E73eFrx1nqOliAejbNH3XFc2vtdg1zoYNueS78f/qYWPrp4buHvuvA/EO0u6fk5l4ceMwDAzNF99iKjvXSltponBGuNlaWx5f1GxC9ppMJhhy6XrU9yakyyJJ7nx0Udo9sQxvKa0p+ZeMswSR4TetwAADPNJGufGJP8pyH+Q+hAOBOXFjTSREUrS7Wd7hrmh0Qd5yYuXveBvxl6zAAAUNCCORqQXLna0EGyR5cemdRqhHn9ANm7DZn6ddL8Di0n7HFPNumWT+hxAwDA9pIGrRyviXWhA2jHrs2u/a2uqCT8llW09tF6CqHPPzJj5TN+94hPDD1mAADYCT3X74oLWV7W9Wz6hpbyx8UZ/I9oAZzBYP3dZ+lHpdsXXidLtBFSkjw49LgBAMBzi0CT9oreA9W68nX32ux6IpCc6k4y2Ow5bT6ONy2G5Ns+91GPMoYeMwAATECL7QyJDyz62Vfr0tfWi+RqLadriL+gXQi1mJIWKMIP5va0CJFXgSmSjej4BwDQI9olsOjY94uOTQa0EuDAWP6GLuFrFbtQHQ+7eIw0Jr7E834fHHrcAADQEH3DixN+tyE+e6pVByte2r5Xz69rH4CY5IjRWF6thYraVF63jWKS93iuqghWUQAAZupYodaG5xMMyeWhg73ntcnt+VtZrsf3NPdBC/RgYlBUk/RthZzIvqF/jwAAEIBryKONiYg/rUvHU2xOVPPFNxT9BU43lo/VrQ9XyXBedqvS/KiLYpKTPe/beaHHDAAArepJwPtrII2t/DF8YJ/8yic1vE7b4RrLp+iWgqHsDcMxP7MvuQWG+Fk+kzf9/x2l6ZNCjxsAAFpK68Lr8Tp3xJBkY+hg3sgEwcr1xspcbPl/8+OEfIy2JzZjOWCYJM/T4ktluiaGkrdqdtsi5T83ycmhxw0AAB2h++y6XWCIP9bnCcH2L1dwiQ3xBbGV0/IcCj4sJnnbkHgfnSzk/RsWHhYvLNx7Wt9LngvhFfw3dqWTIQAAtHtC8NGY5Iez3jlwsUsbORnLCzHxyNVmsHJWTPKt2MqXYuKjinu3RCcRLqHRFXSSvTVJc2TlhUOSp+hl0vSxq5Pk4XrNzV1239Wr191nbm7unpoAqScm/MYkHwz92wEAgJ4ZEj2oCGT6dnyhy9pvQSDGdes9GODEBAAANE73zvVt1oz5UGP5DE3GQzAONCEh3qJVAvGzBwCAIEYi9zeJvMxY+VTev4CvwKRgGtsR8hX85AEAoIWTgmwvTTDUTPxizxzbB7VNAPjKQZbtEvp7BgAA2KnBYHAXl1Vv0zfFVj5nSH4QW05nsOPh5Bcq/gEAQNfpufehzZ4wsvw6rWBoSL6vVQBNTwoX1X0Zy8tCf2cAAACN0sp+sZVn67E6Y+UzrpmQlUFsZUPoQBzm4iv02CB+dgAAMLO2npsfjbOXx2P+19jKcUVToUs0UHa3D8L2rxGlrwh93wEAAFpt5cqVfxUnyYMH43SP2PKrhsQHau6BFu4xVn5WJCau70pyovY9CH1PAQAAekWX1bVHwKoke+6QstcMSd5b1Do4NiY5yXUlJP5FnpvAC8bytVOdAJCMR6PRPULfJwAAAHAnG9bf3aTprlrSN06S3TVfwYyzF7nqiZS9UcsC62QitnJIcX3WEB/tKitaWbrtlU80ZPli12gsj8cNBwAAAAAAAAAAAAAAAAAAAAAAAAAAAAAAAAAAAAAAAAAAAAAAAAAAAAAAAAAAAAAAAAAAAAAAAAAAAAAAAAAAAAAAAAAAAAAAAAAAAAAAAAAAAAAAAAAAAAAAAAAAAAAAAAAAAAAAAAAAAAAAAAAAAAAAAAAAAAAAAAAAAAAAAAAAAAAAAAAAAAAAAAAAAAAAAAAAAAAAAAAAAAAAAAAAAAAAAAAAAAAAAAAAAAAAAAAAAAAAAAAAAAAAAAAAAAAAAAAAAAAAAAAAAAAAAAAAAAAAAICo6/4f0e78J02q/+cAAAAASUVORK5CYII=;" parent="PmAsDYt7ePFWswJWPdAt-1" vertex="1">
                    <mxGeometry x="480" y="-1020" width="60" height="60" as="geometry"/>
                </mxCell>
                <mxCell id="9O1I6l7ymoWSYBFQMa-3-112" value="&lt;span style=&quot;font-size: 18px;&quot;&gt;&lt;i&gt;SQL Server&lt;/i&gt;&lt;br style=&quot;font-size: 18px;&quot;&gt;&lt;/span&gt;" style="text;html=1;strokeColor=none;fillColor=none;align=center;verticalAlign=middle;whiteSpace=wrap;rounded=0;fontSize=18;" parent="PmAsDYt7ePFWswJWPdAt-1" vertex="1">
                    <mxGeometry x="484.64" y="-993" width="180" height="20" as="geometry"/>
                </mxCell>
                <mxCell id="ZuXJDVdzR-EoS6bx_8SH-0" style="edgeStyle=orthogonalEdgeStyle;rounded=0;orthogonalLoop=1;jettySize=auto;html=1;dashed=1;dashPattern=12 12;strokeWidth=1;strokeColor=#9C9C9C;" parent="PmAsDYt7ePFWswJWPdAt-1" source="ZuXJDVdzR-EoS6bx_8SH-1" edge="1">
                    <mxGeometry relative="1" as="geometry">
                        <mxPoint x="656" y="-780" as="targetPoint"/>
                    </mxGeometry>
                </mxCell>
                <mxCell id="ZuXJDVdzR-EoS6bx_8SH-1" value="&lt;font style=&quot;font-size: 13px;&quot;&gt;Stored Procedure&lt;/font&gt;" style="shadow=0;dashed=0;html=1;strokeColor=none;fillColor=#4495D1;labelPosition=center;verticalLabelPosition=top;verticalAlign=bottom;align=center;outlineConnect=0;shape=mxgraph.veeam.script;" parent="PmAsDYt7ePFWswJWPdAt-1" vertex="1">
                    <mxGeometry x="631.05" y="-860" width="49.6" height="40" as="geometry"/>
                </mxCell>
                <mxCell id="ZuXJDVdzR-EoS6bx_8SH-5" style="edgeStyle=orthogonalEdgeStyle;rounded=0;orthogonalLoop=1;jettySize=auto;html=1;dashed=1;dashPattern=12 12;strokeWidth=1;strokeColor=#9C9C9C;" parent="PmAsDYt7ePFWswJWPdAt-1" source="ZuXJDVdzR-EoS6bx_8SH-6" edge="1">
                    <mxGeometry relative="1" as="geometry">
                        <mxPoint x="971" y="-780" as="targetPoint"/>
                    </mxGeometry>
                </mxCell>
                <mxCell id="ZuXJDVdzR-EoS6bx_8SH-6" value="&lt;font style=&quot;font-size: 13px;&quot;&gt;Stored Procedure&lt;/font&gt;" style="shadow=0;dashed=0;html=1;strokeColor=none;fillColor=#4495D1;labelPosition=center;verticalLabelPosition=top;verticalAlign=bottom;align=center;outlineConnect=0;shape=mxgraph.veeam.script;" parent="PmAsDYt7ePFWswJWPdAt-1" vertex="1">
                    <mxGeometry x="946.41" y="-860" width="49.6" height="40" as="geometry"/>
                </mxCell>
            </root>
        </mxGraphModel>
    </diagram>
</mxfile>